<svg width="1440" height="560" viewBox="0 0 1440 560" fill="none" xmlns="http://www.w3.org/2000/svg">
<g clip-path="url(#clip0)">
<path d="M1440 0H0V560H1440V0Z" fill="white"/>
<path d="M128.35 55.69C128.35 62.411 129.674 69.0663 132.246 75.2757C134.818 81.4852 138.588 87.1272 143.34 91.8797C148.093 96.6322 153.735 100.402 159.944 102.974C166.154 105.546 172.809 106.87 179.53 106.87C186.251 106.87 192.906 105.546 199.116 102.974C205.325 100.402 210.967 96.6322 215.72 91.8797C220.472 87.1272 224.242 81.4852 226.814 75.2757C229.386 69.0663 230.71 62.411 230.71 55.69C230.71 42.1162 225.318 29.0984 215.72 19.5003C206.122 9.90216 193.104 4.50999 179.53 4.50999C165.956 4.50999 152.938 9.90216 143.34 19.5003C133.742 29.0984 128.35 42.1162 128.35 55.69V55.69Z" stroke="#037B0B"/>
<path d="M696.1 187.36H699.4V239.51H696.1V187.36Z" stroke="#E73635"/>
<path d="M1314.15 85.12C1314.15 92.0315 1316.9 98.66 1321.78 103.547C1326.67 108.434 1333.3 111.18 1340.21 111.18C1347.12 111.18 1353.75 108.434 1358.64 103.547C1363.52 98.66 1366.27 92.0315 1366.27 85.12C1366.27 78.2085 1363.52 71.58 1358.64 66.6928C1353.75 61.8056 1347.12 59.06 1340.21 59.06C1333.3 59.06 1326.67 61.8056 1321.78 66.6928C1316.9 71.58 1314.15 78.2085 1314.15 85.12V85.12Z" stroke="#D3B714"/>
<path d="M197.87 73.81C198.94 73.7692 199.99 73.5154 200.961 73.0636C201.931 72.6117 202.802 71.9709 203.522 71.1785C204.241 70.3862 204.796 69.4582 205.153 68.449C205.509 67.4397 205.661 66.3694 205.6 65.3008C205.538 64.2321 205.263 63.1865 204.793 62.2251C204.322 61.2638 203.664 60.406 202.857 59.7019C202.051 58.9979 201.112 58.4618 200.096 58.1249C199.08 57.788 198.007 57.6572 196.94 57.74L197.87 73.81Z" fill="#037B0B"/>
<path d="M983.55 431.39C983.55 432.562 984.016 433.686 984.845 434.515C985.674 435.344 986.798 435.81 987.97 435.81C989.142 435.81 990.266 435.344 991.095 434.515C991.924 433.686 992.39 432.562 992.39 431.39C992.39 430.218 991.924 429.093 991.095 428.265C990.266 427.436 989.142 426.97 987.97 426.97C986.798 426.97 985.674 427.436 984.845 428.265C984.016 429.093 983.55 430.218 983.55 431.39V431.39Z" stroke="#037B0B"/>
<path d="M188.53 336.21H203.99V376.43H188.53V336.21Z" fill="#037B0B"/>
<path d="M619.23 175.88H636.36V182.65H619.23V175.88Z" fill="#D3B714"/>
<path d="M308.88 413.98C308.88 415.707 309.566 417.362 310.787 418.583C312.008 419.804 313.663 420.49 315.39 420.49C317.117 420.49 318.772 419.804 319.993 418.583C321.214 417.362 321.9 415.707 321.9 413.98C321.9 412.253 321.214 410.598 319.993 409.377C318.772 408.156 317.117 407.47 315.39 407.47C313.663 407.47 312.008 408.156 310.787 409.377C309.566 410.598 308.88 412.253 308.88 413.98V413.98Z" stroke="#D3B714"/>
<path d="M1384.04 257.24H1435.49V308.69H1384.04V257.24Z" fill="#E73635"/>
<path d="M491.85 546.34C498.26 548.986 505.129 550.344 512.065 550.335C519 550.327 525.865 548.952 532.269 546.291C538.673 543.629 544.49 539.732 549.388 534.822C554.286 529.912 558.169 524.085 560.815 517.675C563.461 511.264 564.819 504.396 564.81 497.46C564.802 490.525 563.427 483.66 560.766 477.256C558.104 470.852 554.207 465.035 549.297 460.137C544.387 455.239 538.561 451.356 532.15 448.71L491.85 546.34Z" stroke="#E73635"/>
<path d="M109.78 349.53H118.88V390.41H109.78V349.53Z" stroke="#D3B714"/>
<path d="M221.19 555.17H223.5V583.02H221.19V555.17Z" fill="#037B0B"/>
<path d="M46.35 302.52H82.95V347.55H46.35V302.52Z" fill="#E73635"/>
<path d="M827.11 26.55C829.656 20.3681 830.956 13.744 830.934 7.05836C830.913 0.372682 829.57 -6.24285 826.984 -12.4082C824.398 -18.5735 820.619 -24.167 815.865 -28.8675C811.11 -33.568 805.474 -37.2827 799.28 -39.7983C793.085 -42.3138 786.455 -43.5807 779.769 -43.526C773.084 -43.4713 766.475 -42.0962 760.323 -39.4796C754.17 -36.8631 748.595 -33.0566 743.919 -28.279C739.242 -23.5014 735.555 -17.8468 733.07 -11.64L827.11 26.55Z" stroke="#D3B714"/>
<path d="M640.03 305.09C640.03 308.169 641.253 311.122 643.43 313.299C645.608 315.477 648.561 316.7 651.64 316.7C654.719 316.7 657.672 315.477 659.849 313.299C662.027 311.122 663.25 308.169 663.25 305.09C663.25 302.011 662.027 299.058 659.849 296.88C657.672 294.703 654.719 293.48 651.64 293.48C648.561 293.48 645.608 294.703 643.43 296.88C641.253 299.058 640.03 302.011 640.03 305.09Z" fill="#D3B714"/>
<path d="M171.18 448.61H208.54V485.97H171.18V448.61Z" stroke="#D3B714"/>
<path d="M709.31 134.45H720.07V163.05H709.31V134.45Z" stroke="#D3B714"/>
<path d="M1395.86 362.1H1439.19V405.43H1395.86V362.1Z" stroke="#037B0B"/>
<path d="M414.23 479.93H447.02V515.08H414.23V479.93Z" stroke="#037B0B"/>
<path d="M243.82 367.29C242.771 370.148 242.295 373.184 242.419 376.225C242.543 379.267 243.265 382.254 244.544 385.017C247.126 390.596 251.819 394.921 257.59 397.04C263.361 399.159 269.738 398.899 275.317 396.316C278.079 395.038 280.563 393.227 282.626 390.989C284.689 388.75 286.291 386.128 287.34 383.27L243.82 367.29Z" stroke="#D3B714"/>
<path d="M1102.26 124.5C1102.26 124.836 1102.33 125.169 1102.45 125.48C1102.58 125.79 1102.77 126.072 1103.01 126.31C1103.25 126.548 1103.53 126.736 1103.84 126.865C1104.15 126.994 1104.48 127.06 1104.82 127.06C1105.16 127.06 1105.49 126.994 1105.8 126.865C1106.11 126.736 1106.39 126.548 1106.63 126.31C1106.87 126.072 1107.06 125.79 1107.19 125.48C1107.31 125.169 1107.38 124.836 1107.38 124.5C1107.38 124.164 1107.31 123.831 1107.19 123.52C1107.06 123.21 1106.87 122.928 1106.63 122.69C1106.39 122.452 1106.11 122.264 1105.8 122.135C1105.49 122.006 1105.16 121.94 1104.82 121.94C1104.48 121.94 1104.15 122.006 1103.84 122.135C1103.53 122.264 1103.25 122.452 1103.01 122.69C1102.77 122.928 1102.58 123.21 1102.45 123.52C1102.33 123.831 1102.26 124.164 1102.26 124.5Z" stroke="#D3B714"/>
<path d="M1104.2 395.91H1150.69V442.4H1104.2V395.91Z" fill="#037B0B"/>
<path d="M1053.83 16.57C1053.83 21.4977 1055.79 26.2236 1059.27 29.708C1062.76 33.1925 1067.48 35.15 1072.41 35.15C1077.34 35.15 1082.06 33.1925 1085.55 29.708C1089.03 26.2236 1090.99 21.4977 1090.99 16.57C1090.99 11.6423 1089.03 6.91637 1085.55 3.43195C1082.06 -0.0524797 1077.34 -2.01001 1072.41 -2.01001C1067.48 -2.01001 1062.76 -0.0524797 1059.27 3.43195C1055.79 6.91637 1053.83 11.6423 1053.83 16.57V16.57Z" stroke="#D3B714"/>
<path d="M1320.92 229.25H1348.43V250.72H1320.92V229.25Z" fill="#D3B714"/>
<path d="M823.32 185.61C821.78 185.33 820.193 185.673 818.906 186.564C817.62 187.455 816.74 188.82 816.46 190.36C816.18 191.9 816.523 193.487 817.414 194.774C818.305 196.06 819.67 196.94 821.21 197.22L823.32 185.61Z" stroke="#E73635"/>
<path d="M904.89 328.24H960.35V383.7H904.89V328.24Z" stroke="#D3B714"/>
<path d="M306.25 315.67H336.42V345.84H306.25V315.67Z" fill="#D3B714"/>
<path d="M806.25 347.9C806.25 353.546 808.493 358.962 812.486 362.954C816.478 366.947 821.894 369.19 827.54 369.19C833.186 369.19 838.602 366.947 842.594 362.954C846.587 358.962 848.83 353.546 848.83 347.9C848.83 342.254 846.587 336.838 842.594 332.846C838.602 328.853 833.186 326.61 827.54 326.61C821.894 326.61 816.478 328.853 812.486 332.846C808.493 336.838 806.25 342.254 806.25 347.9V347.9Z" stroke="#037B0B"/>
<path d="M227.6 320.88H248.65V341.93H227.6V320.88Z" stroke="#E73635"/>
<path d="M196.85 260.8H230.76V294.71H196.85V260.8Z" stroke="#037B0B"/>
<path d="M336.39 476.24C337.051 476.529 337.762 476.682 338.483 476.692C339.204 476.701 339.92 476.567 340.588 476.296C341.256 476.025 341.863 475.624 342.374 475.115C342.885 474.606 343.289 474 343.562 473.333C343.835 472.666 343.972 471.951 343.965 471.23C343.958 470.509 343.807 469.797 343.521 469.135C343.235 468.473 342.819 467.875 342.299 467.376C341.778 466.878 341.163 466.488 340.49 466.23L336.39 476.24Z" fill="#D3B714"/>
<path d="M683.88 338.79H713.07V367.98H683.88V338.79Z" fill="#037B0B"/>
<path d="M1199.67 105.91C1196.05 104.16 1192.13 103.144 1188.11 102.921C1184.1 102.698 1180.09 103.273 1176.3 104.612C1172.51 105.951 1169.02 108.028 1166.04 110.722C1163.06 113.416 1160.65 116.675 1158.93 120.309C1157.22 123.943 1156.24 127.881 1156.06 131.895C1155.88 135.908 1156.49 139.919 1157.87 143.693C1159.25 147.468 1161.36 150.932 1164.08 153.885C1166.81 156.839 1170.09 159.223 1173.74 160.9L1199.67 105.91Z" fill="#037B0B"/>
<path d="M0 0H1440V560H0V0Z" fill="black" fill-opacity="0.3"/>
</g>
<defs>
<clipPath id="clip0">
<rect width="1440" height="560" fill="white"/>
</clipPath>
</defs>
</svg>
