<svg xmlns="http://www.w3.org/2000/svg" xmlns:xlink="http://www.w3.org/1999/xlink" viewBox="0 0 2328.67 1855.67"><defs><style>.cls-1{fill:none;}.cls-2{isolation:isolate;}.cls-10,.cls-3{fill:#2861a3;}.cls-3,.cls-9{opacity:0.2;}.cls-4{fill:#92a3cb;}.cls-5{clip-path:url(#clip-path);}.cls-6{fill:#eaeef8;}.cls-7{fill:#fdb740;}.cls-8{fill:url(#linear-gradient);}.cls-12,.cls-43,.cls-9{fill:#fff;}.cls-11{fill:#f7941d;}.cls-13{fill:#e6e7e8;}.cls-14{fill:#face47;}.cls-15{fill:#bcaecf;}.cls-16{fill:#433072;}.cls-17,.cls-38{mix-blend-mode:multiply;}.cls-18{fill:url(#linear-gradient-2);}.cls-19{fill:url(#linear-gradient-3);}.cls-20{fill:#4c1147;}.cls-21{fill:url(#linear-gradient-4);}.cls-22{fill:url(#linear-gradient-5);}.cls-23{fill:#791028;}.cls-24{fill:url(#linear-gradient-6);}.cls-25{fill:url(#linear-gradient-7);}.cls-26{fill:url(#linear-gradient-8);}.cls-27{fill:url(#linear-gradient-9);}.cls-28{fill:url(#linear-gradient-10);}.cls-29,.cls-31{opacity:0.3;}.cls-29,.cls-31,.cls-44{mix-blend-mode:darken;}.cls-29{fill:url(#linear-gradient-11);}.cls-30{fill:url(#linear-gradient-12);}.cls-31{fill:url(#linear-gradient-13);}.cls-32{fill:#6faacd;}.cls-33{fill:url(#linear-gradient-14);}.cls-34{fill:url(#linear-gradient-15);}.cls-35{fill:#ffda8b;}.cls-36{fill:url(#linear-gradient-16);}.cls-37{fill:url(#linear-gradient-17);}.cls-38{fill:#bcbec0;}.cls-39{fill:url(#linear-gradient-18);}.cls-40{fill:url(#linear-gradient-19);}.cls-41{fill:url(#linear-gradient-20);}.cls-42{fill:url(#linear-gradient-21);}.cls-43,.cls-44{opacity:0.4;}.cls-45{fill:#d1d3d4;}.cls-46{fill:url(#linear-gradient-22);}.cls-47{fill:url(#linear-gradient-23);}.cls-48{fill:url(#linear-gradient-24);}.cls-49{fill:url(#linear-gradient-25);}</style><clipPath id="clip-path" transform="translate(95.53 -69.94)"><path class="cls-1" d="M1019.54,1633.43c-86.9,35.6-172.07,79.57-260.83,114.3-16.33,6.14-32.76,12-49.37,17.53-22.16,7.24-44.37,13.94-66.87,19.88S597.41,1796,574.33,1800a567.75,567.75,0,0,1-65.26,6.5,471.73,471.73,0,0,1-66.63-2,476.13,476.13,0,0,1-74.79-15.74,420.9,420.9,0,0,1-141.13-73c-98.91-76.94-140.13-211.57-88.32-325.25,11.17-28.42,26.81-57.94,47.74-88.36a475.07,475.07,0,0,0,38.34-45.73c150.61-161.61,76.42-378.67-.51-557.26-33-79.68-33-173.1,19.76-247.8a269.53,269.53,0,0,1,66.76-62.41c24.63-16.16,51.38-28,79.55-36.2a419.48,419.48,0,0,1,58.22-12.37C565.34,317.82,676.18,330.58,775.9,373a576.31,576.31,0,0,1,72.64,37.28c84.1,44.32,140.14,191.67,284.67,187.19,180-5.58,351.69-164.85,530.6-80.12a255.63,255.63,0,0,1,53.91,33.9c32.77,27,58.42,62.71,72.15,106.67,46.71,148.36-35.71,288.49-76.93,425.87-8.24,27.47-15.11,56.32-16.48,85.17s2.74,57.7,16.48,85.18c68.69,123.64,87.93,305-53.55,383.09a522,522,0,0,1-48.12,27.78c-49.79,25.13-104.39,41.1-162.09,37-120.89-11-228-66-349.42-72.13Q1062.2,1630.27,1019.54,1633.43Z"/></clipPath><linearGradient id="linear-gradient" x1="4904.13" y1="-653.36" x2="5277.24" y2="-653.36" gradientTransform="matrix(-0.56, 0.83, 0.83, 0.56, 3909.68, -2523.4)" gradientUnits="userSpaceOnUse"><stop offset="0" stop-color="#84b8e3"/><stop offset="1" stop-color="#33398f"/></linearGradient><linearGradient id="linear-gradient-2" x1="795.9" y1="1227.34" x2="853.81" y2="1227.34" gradientUnits="userSpaceOnUse"><stop offset="0" stop-color="#f89420"/><stop offset="1" stop-color="#f04f36"/></linearGradient><linearGradient id="linear-gradient-3" x1="684.15" y1="1224.11" x2="742.44" y2="1224.11" xlink:href="#linear-gradient-2"/><linearGradient id="linear-gradient-4" x1="912.45" y1="720.31" x2="951.6" y2="720.31" gradientUnits="userSpaceOnUse"><stop offset="0.1" stop-color="#ffda8b"/><stop offset="0.25" stop-color="#fed589"/><stop offset="0.41" stop-color="#fdc884"/><stop offset="0.58" stop-color="#fbb27c"/><stop offset="0.76" stop-color="#f79371"/><stop offset="0.94" stop-color="#f36c63"/><stop offset="1" stop-color="#f15d5d"/></linearGradient><linearGradient id="linear-gradient-5" x1="896.54" y1="699.6" x2="1023.65" y2="699.6" xlink:href="#linear-gradient-2"/><linearGradient id="linear-gradient-6" x1="1072.77" y1="778.94" x2="1072.77" y2="720.86" gradientTransform="translate(-193.71 -69.94)" xlink:href="#linear-gradient-4"/><linearGradient id="linear-gradient-7" x1="763.18" y1="718.38" x2="816.43" y2="718.38" xlink:href="#linear-gradient-4"/><linearGradient id="linear-gradient-8" x1="733.78" y1="845.72" x2="837.14" y2="845.72" xlink:href="#linear-gradient-2"/><linearGradient id="linear-gradient-9" x1="518.1" y1="-947.5" x2="610.09" y2="-947.5" gradientTransform="matrix(0.37, -0.93, 0.93, 0.37, 1466.76, 1714.58)" xlink:href="#linear-gradient-2"/><linearGradient id="linear-gradient-10" x1="861.47" y1="835.95" x2="899.22" y2="835.95" xlink:href="#linear-gradient-4"/><linearGradient id="linear-gradient-11" x1="3467.25" y1="-395.53" x2="3527.92" y2="-395.53" gradientTransform="matrix(-0.99, -0.12, -0.12, 0.99, 4831.52, 1586.41)" gradientUnits="userSpaceOnUse"><stop offset="0" stop-color="#fff"/><stop offset="1"/></linearGradient><linearGradient id="linear-gradient-12" x1="1674.89" y1="932.1" x2="1713.41" y2="932.1" xlink:href="#linear-gradient-2"/><linearGradient id="linear-gradient-13" x1="3087.73" y1="-334.93" x2="3123.06" y2="-334.93" gradientTransform="matrix(-0.99, -0.12, -0.12, 0.99, 4735.99, 1656.35)" xlink:href="#linear-gradient-11"/><linearGradient id="linear-gradient-14" x1="3652.3" y1="1052.52" x2="3652.3" y2="1000.06" gradientTransform="matrix(-1, 0, 0, 1, 5175.06, 0)" xlink:href="#linear-gradient-4"/><linearGradient id="linear-gradient-15" x1="1424.17" y1="836.19" x2="1456.48" y2="836.19" xlink:href="#linear-gradient-4"/><linearGradient id="linear-gradient-16" x1="3615.51" y1="902.57" x2="3676.94" y2="902.57" gradientTransform="matrix(-1, 0, 0, 1, 5270.58, -69.94)" xlink:href="#linear-gradient-4"/><linearGradient id="linear-gradient-17" x1="3651.32" y1="889.98" x2="3651.32" y2="827.62" gradientTransform="matrix(-1, 0, 0, 1, 5175.06, 0)" xlink:href="#linear-gradient-4"/><linearGradient id="linear-gradient-18" x1="1546.82" y1="1037.53" x2="1569.46" y2="1037.53" xlink:href="#linear-gradient-4"/><linearGradient id="linear-gradient-19" x1="3585.46" y1="1043.37" x2="3622.16" y2="1043.37" gradientTransform="matrix(-1, 0, 0, 1, 5175.06, 0)" xlink:href="#linear-gradient-4"/><linearGradient id="linear-gradient-20" x1="1010.63" y1="777.81" x2="1167.47" y2="777.81" gradientUnits="userSpaceOnUse"><stop offset="0.52" stop-color="#b15883"/><stop offset="1" stop-color="#7a2d8d"/></linearGradient><linearGradient id="linear-gradient-21" x1="868.39" y1="498.92" x2="1309.7" y2="498.92" xlink:href="#linear-gradient-2"/><linearGradient id="linear-gradient-22" x1="684.07" y1="618.42" x2="740.87" y2="618.42" xlink:href="#linear-gradient-20"/><linearGradient id="linear-gradient-23" x1="459.44" y1="535.65" x2="804.86" y2="535.65" xlink:href="#linear-gradient-20"/><linearGradient id="linear-gradient-24" x1="-607.8" y1="795.73" x2="-569.84" y2="795.73" gradientTransform="matrix(-1, 0, 0, 1, 1168.77, -69.94)" xlink:href="#linear-gradient-20"/><linearGradient id="linear-gradient-25" x1="-757.9" y1="740.42" x2="-527.08" y2="740.42" gradientTransform="matrix(-1, 0, 0, 1, 1168.77, -69.94)" xlink:href="#linear-gradient-20"/></defs><g class="cls-2"><g id="Layer_1" data-name="Layer 1"><path class="cls-3" d="M816.16,1502.63c-19.55-5.18-40-10.54-61.19-16.33s-42.92-11.65-64.61-17.56c-43.38-11.82-86.87-23.85-129.72-38q-23.43-8.09-46.66-17c-231.13-37.22-431.71-270.76-305.32-507.05C269.11,791.19,401,774.71,510.59,748.54a272,272,0,0,0,58.71-30.77,248.61,248.61,0,0,0,50.77-43C692.23,596.12,706,489,771.91,401s184.08-76.93,283-79.68c167.6-5.49,313.22,118.15,350.37,280.67,5.55,20.81,9.67,41.84,13.33,63.11,7.33,42.52,12.85,85.92,24.4,130.19,3,21.46,25.46,39.47,46.49,46.67,60,17.88,120.41,20.63,183.61,31.62,93.41,16.49,173.09,71.44,208.81,156.61,28.85,76.93,31.6,163.48,8.93,241.78a357.73,357.73,0,0,1-31.11,74.9,236.41,236.41,0,0,1-34.86,51.24c-36.85,34.88-73.94,67.91-110.67,101q-27.56,24.82-55,49.79c-17.83,12.92-35.13,27.33-52.24,42.18-161.89,191.92-491.6,211.15-676,42.21a267.55,267.55,0,0,1-43.6-75.59c-5.5-8.24-13.74-13.74-21-20.1C852.15,1527,835.49,1515.4,816.16,1502.63Z" transform="translate(95.53 -69.94)"/><path class="cls-4" d="M1172.94,428.92c-5.55-3.06-10.8-5.92-15.75-8.65s-9.41-5.56-13.65-8-8.11-4.73-11.49-7c-4.52-2.84-8.31-5.24-11.46-7.3C1118,385.2,1095.25,290.69,981.1,281.57c0,0,6,124.86,138.45,117.91,2.79,2.5,6.18,5.48,10.26,8.86,6.24,5.31,14.13,11.37,23.26,18.24q7,5,14.81,10.56c5.16,3.84,11.31,6.68,17.34,10.28,4.79,2.66,9.74,5.53,14.84,8.36l-22.52,1.63c-4.1.3-8.24.6-12.08.91l-4.16.43c-108.35-88.88-180-15.18-180-15.18,124.34,78.26,167.53,35.43,177.92,20.29,2.12-.21,4.36-.46,6.74-.72,3.84-.28,7.94-.6,12-.88l22.49-1.63a10.93,10.93,0,0,0,2.19-.21c.69-.23,1.34-.47,2-.67s1.1-.41,1.64-.6c6.14,3.13,12.44,6.32,18.91,9.64,3.6,1.81,7.18,3.74,10.92,5.49l11.4,5.15L1271.07,490c8.23,3.35,16.27,6.68,24.77,9.87,4,1.51,8.11,3,12.17,4.49a32.94,32.94,0,0,0-3.74-.23q-3.46-.15-7-.25l-13.77-.53-12.06.19a20.29,20.29,0,0,0-2.5.08c-.81.19-1.56.41-2.28.57s-1.13.36-1.71.54c-19.74-9.36-101.28-40.81-175.06,36.77,0,0,100.66,73.81,178.59-33.2a4.3,4.3,0,0,1,.69.16,18.9,18.9,0,0,0,2.48,0c3.47-.07,7.5-.12,11.83-.21,4.32.18,9,.32,13.6.53l6.9.24a58.44,58.44,0,0,1,6.62.57c4.33.51,8.34,1,11.78,1.4a11,11,0,0,0,2.47.25l1.41-.16c15.67,5.66,31.48,11.33,46.84,17.92,8.57,3.43,16.79,7.53,25,11.44,4.12,2,8.07,4.32,12.06,6.43s8,4.27,11.81,6.75l2.58,1.63c-.68-.08-1.37-.17-2.08-.22a91.46,91.46,0,0,0-9.58-.51c-3.34-.21-6.78.15-10.3.23-3.47.34-7,.66-10.55,1.28-3.19.74-6.48,1.24-9.6,2.27.16-.65.38-1.2.55-1.84,0,0-105-27.5-149.85,76.31,0,0,112.88,42.44,147.62-68.88l2.26-.72c3.16-1.16,6.55-1.57,9.85-2.34,3.34-.59,6.75-.89,10.08-1.24,3.35-.07,6.65-.42,9.86-.21,3.21,0,6.29.19,9.22.49s5.67.66,8.22,1c1.29.11,2.46.59,3.64.61l.52,0c3.4,2.2,6.78,4.43,10,6.86,3.58,2.59,7.17,5.11,10.72,7.66s6.79,5.51,10.13,8.21,6.66,5.4,10,8.07c3.15,2.85,6.26,5.69,9.32,8.48,6.12,5.64,12.23,11,17.66,16.76s10.93,11.17,16.17,16.51c1.17,1.32,2.33,2.61,3.48,3.93-1.59-.57-3.21-1.1-4.87-1.54a72.78,72.78,0,0,0-20.47-2.58,7.75,7.75,0,0,0-2,.05c-.66.21-1.25.43-1.8.63-.75.28-1.32.54-1.92.8-10.1-5.41-85.85-42.38-144.4,29.85,0,0,88.51,64.92,144.43-27.42.67.16,1.32.32,2.12.53.55.12,1.14.29,1.76.44a15,15,0,0,0,1.88,0,68.11,68.11,0,0,1,19.11,2.42,55.34,55.34,0,0,1,9.62,3.54,39,39,0,0,1,4.18,2.16c.2.12.36.22.54.35.92,1,1.82,2,2.71,3,2.28,2.59,4.55,5.14,6.74,7.64s4.11,5.09,6.31,7.37l12.24,13.19c7.82,8.19,14.17,15.73,19.47,21.91,10.65,12.33,16.9,19.29,16.9,19.29s-5-7.85-14-21.48c-4.53-6.81-9.93-15.15-16.71-24.3-2.27-3.2-4.7-6.57-7.19-10,0-.38.09-.71.15-1.14.07-.6.15-1.25.23-1.93a10.55,10.55,0,0,0-.28-2.08,27.32,27.32,0,0,1-.56-4.58c0-1.64,0-3.4-.08-5.19s-.15-3.68-.08-5.58c.23-1.85.43-3.78.63-5.69a33.31,33.31,0,0,1,.82-5.65c.39-1.86.81-3.68,1.19-5.39a37.81,37.81,0,0,1,1.49-5c.55-1.54.92-3.07,1.52-4.35a12.86,12.86,0,0,0,.83-1.91c0-.35.07-.65.13-1,14.65-13.18,77.54-77.45,32.54-176.78,0,0-105.11,64.89-37.35,176.3-.22.49-.37,1-.65,1.56-.63,1.39-1,3-1.64,4.63a46.44,46.44,0,0,0-1.57,5.27c-.42,1.85-.85,3.78-1.27,5.75a43.37,43.37,0,0,0-.88,6c-.22,2-.42,4-.62,6s0,3.95,0,5.86.08,3.74.12,5.49a11.67,11.67,0,0,0,.2,2.4c-3.39-4.37-7.47-8.48-11.37-13q-7-7.85-14.55-16.36c-5.34-5.39-10.8-11-16.43-16.73s-11.75-11.35-18-17.09c-3.12-2.83-6.3-5.71-9.48-8.63-1.72-1.41-3.48-2.84-5.22-4.24.06-.27.09-.52.17-.79.08-.5-.26-.93-.28-1.44-.82-3.93-1.91-9.18-3-14.39s-2.21-10.48-3-14.42c-.11-.33-.1-.67-.18-1,10.32-22.22,38.83-101.28-36.23-173.69,0,0-74.83,100.48,32.42,179.24.69,3.29,1.5,7.07,2.28,10.82s1.62,7.78,2.32,11.15c-3.22-2.62-6.42-5.31-9.77-7.9l-11-7.88c-7.24-5.5-15.17-10.17-23-15.14-3.86-2.54-8-4.63-12.11-6.92s-8.17-4.57-12.4-6.62c-6.3-3-12.64-6-19-8.83a20.16,20.16,0,0,0-1.78-1.47c-3.35-2.82-7.49-5.75-11.53-9.54s-8.49-7.55-12.69-11.69c-8.53-8.06-16.73-16.52-22.86-22.89a30.05,30.05,0,0,0-2.2-2.28l-1.32-1c1.59-13.45,9.66-114.15-102.66-140.94,0,0-3.81,144.3,98.71,142.5a2.53,2.53,0,0,1,.18.27c.49.79,1,1.6,1.58,2.47s1.48,1.45,2.2,2.3c6.15,6.43,14.39,14.91,23,23.06,4.22,4.17,8.72,8.08,12.85,11.82.31.26.62.49.91.76-14.36-5.81-28.84-11-43.06-16.12-8.62-3-17.08-6.23-25.38-9.32s-16.66-6.59-24.58-9.78l-23.27-10.47c-3.8-1.7-7.56-3.4-11.29-5.05s-7.21-3.66-10.76-5.43c-6.34-3.24-12.48-6.39-18.5-9.45a47.43,47.43,0,0,1-4.2-4.09,70.19,70.19,0,0,1-5-5.68,69.29,69.29,0,0,1-4.59-6.09c-1.49-2-2.68-4.18-4-6.19a103.4,103.4,0,0,1-5.85-11.69c-.43-.85-.58-1.76-1.05-2.52s-.94-1.5-1.36-2.14c0,0,0-.09-.09-.13,5.54-19.44,18-85.27-55.27-113.5,0,0-31.09,85.71,52.61,118.64a11.61,11.61,0,0,1,.67,1.53,108.35,108.35,0,0,0,6.13,12.26c1.36,2.13,2.6,4.38,4.18,6.5,1.31,1.93,2.73,3.8,4.23,5.62-2.49-1.42-4.93-2.84-7.35-4.19C1184,435.65,1178.43,432,1172.94,428.92Z" transform="translate(95.53 -69.94)"/><g class="cls-5"><rect class="cls-6" width="2328.67" height="1716.24"/><path class="cls-3" d="M-84.14,1389.25s-44.69,86.77,178.79,68.36,604.73-68.36,604.73,5.26,5.26,78.88,273.44,34.18S2064,1507.57,1995.6,1570.67,1709,1686.36,1709,1686.36L302.36,1925.62" transform="translate(95.53 -69.94)"/></g><path class="cls-4" d="M1607,1653a12.67,12.67,0,0,1-12.67,12.67H248.73A12.67,12.67,0,0,1,236.06,1653h0a12.67,12.67,0,0,1,12.67-12.67H1594.31A12.67,12.67,0,0,1,1607,1653Z" transform="translate(95.53 -69.94)"/><rect class="cls-7" x="602.68" y="1483.38" width="13.81" height="88.14"/><rect class="cls-7" x="559.64" y="1552.57" width="102.35" height="18.95"/><path class="cls-8" d="M402.5,1473.56c-85.08-57.82-107.24-174.08-49.42-259.15S527.17,1107.17,612.24,1165s107.24,174.09,49.41,259.16S487.57,1531.39,402.5,1473.56Z" transform="translate(95.53 -69.94)"/><path class="cls-9" d="M459.69,1332c-2.38-28.5,1.15-29.93-30.43-43.72s-28.12-7.6-34.46-52.86c-3.48-24.81-6.24-42.18-15.89-52.09a186,186,0,0,0-26.32,30.88c-56,82.33-37,193.86,41.39,253.38,3.32-8.23,7.69-19.29,13.43-34.19C430.85,1372.58,462.08,1360.53,459.69,1332Z" transform="translate(95.53 -69.94)"/><path class="cls-9" d="M611.75,1164.82a186.05,186.05,0,0,0-145.43-27.7c.65,24.24,42.46,41.65,38.55,68.2-5.31,36.06,8,18.27,60.33,48.69s13.84,28.6,36,73.13c18.37,36.85,72.81,19.34,91,12.21C699.42,1273,670.69,1204.88,611.75,1164.82Z" transform="translate(95.53 -69.94)"/><path class="cls-9" d="M557.53,1389.57c-19.57,21.25-62,29.06-62,29.06-21.65,48.8,37.35,33.55,50.09,20.45s42-7.26,53.91-20.95S577.09,1368.32,557.53,1389.57Z" transform="translate(95.53 -69.94)"/><path class="cls-7" d="M507.16,1562.8a242.46,242.46,0,0,0,133-39.51l-10.38-15.86a223.6,223.6,0,0,1-122.62,36.42c-123.77,0-224.46-100.69-224.46-224.46,0-78.56,40-150.07,107-191.3L379.74,1112c-72.63,44.71-116,122.25-116,207.44C263.75,1453.61,372.94,1562.8,507.16,1562.8Z" transform="translate(95.53 -69.94)"/><rect class="cls-7" x="501.07" y="1046.07" width="18.95" height="560.91" transform="translate(-520.15 389.44) rotate(-31.35)"/><path class="cls-3" d="M1439.84,1233.77h-120.9V1109.7h120.9a14.37,14.37,0,1,0,0-28.73h-744a90.76,90.76,0,1,0,0,181.52h744a14.36,14.36,0,1,0,0-28.72Z" transform="translate(95.53 -69.94)"/><path class="cls-10" d="M668.63,1171.73A90.76,90.76,0,0,1,759.39,1081H695.83a90.76,90.76,0,1,0,0,181.52h63.56A90.77,90.77,0,0,1,668.63,1171.73Z" transform="translate(95.53 -69.94)"/><path class="cls-11" d="M1454.21,1248.13a14.36,14.36,0,0,0-14.37-14.36h-120.9V1109.7h120.9a14.37,14.37,0,1,0,0-28.73H849.3c-43.75,0-79.21,40.63-79.21,90.76s35.46,90.76,79.21,90.76h590.54A14.36,14.36,0,0,0,1454.21,1248.13Z" transform="translate(95.53 -69.94)"/><path class="cls-10" d="M1454.21,1248.13a14.36,14.36,0,0,0-14.37-14.36h-120.9V1109.7h120.9a14.37,14.37,0,1,0,0-28.73H849.3c-43.75,0-79.21,40.63-79.21,90.76s35.46,90.76,79.21,90.76h590.54A14.36,14.36,0,0,0,1454.21,1248.13Z" transform="translate(95.53 -69.94)"/><path class="cls-12" d="M1419.17,1102.3c-1.62-.11-3.23-.24-4.89-.24h-533a69.68,69.68,0,0,0,0,139.35h533c1.66,0,3.27-.14,4.89-.26Z" transform="translate(95.53 -69.94)"/><rect class="cls-13" x="999.26" y="1130.6" width="462.96" height="8.46"/><rect class="cls-13" x="1004.41" y="1063.76" width="462.96" height="8.46"/><rect class="cls-13" x="1054.34" y="1099.2" width="227.23" height="7.07"/><polygon class="cls-14" points="1351.88 1139.82 1328.69 1110.27 1303.82 1139.82 1303.82 1063.76 1351.88 1063.76 1351.88 1139.82"/><path class="cls-15" d="M511.58,1416.19H632.49V1292.12H511.58a14.37,14.37,0,0,1,0-28.73h744a90.76,90.76,0,0,1,0,181.52h-744a14.36,14.36,0,1,1,0-28.72Z" transform="translate(95.53 -69.94)"/><path class="cls-16" d="M1282.79,1354.15a90.75,90.75,0,0,0-90.75-90.76h63.56a90.76,90.76,0,0,1,0,181.52H1192A90.75,90.75,0,0,0,1282.79,1354.15Z" transform="translate(95.53 -69.94)"/><g class="cls-17"><path class="cls-11" d="M497.22,1430.55a14.35,14.35,0,0,1,14.36-14.36H632.49V1292.12H511.58a14.37,14.37,0,0,1,0-28.73h590.55c43.75,0,79.21,40.63,79.21,90.76s-35.46,90.76-79.21,90.76H511.58A14.35,14.35,0,0,1,497.22,1430.55Z" transform="translate(95.53 -69.94)"/><path class="cls-16" d="M497.22,1430.55a14.35,14.35,0,0,1,14.36-14.36H632.49V1292.12H511.58a14.37,14.37,0,0,1,0-28.73h590.55c43.75,0,79.21,40.63,79.21,90.76s-35.46,90.76-79.21,90.76H511.58A14.35,14.35,0,0,1,497.22,1430.55Z" transform="translate(95.53 -69.94)"/></g><path class="cls-12" d="M532.25,1284.72c1.63-.11,3.24-.24,4.89-.24h533a69.67,69.67,0,1,1,0,139.34h-533c-1.65,0-3.26-.13-4.89-.24Z" transform="translate(95.53 -69.94)"/><rect class="cls-13" x="680.26" y="1313.01" width="462.96" height="8.46"/><rect class="cls-13" x="675.11" y="1246.18" width="462.95" height="8.46"/><rect class="cls-13" x="860.92" y="1281.61" width="227.23" height="7.07"/><polygon class="cls-11" points="790.6 1322.24 813.78 1292.69 838.65 1322.24 838.65 1246.18 790.6 1246.18 790.6 1322.24"/><path class="cls-15" d="M643.45,1048.39H764.36V924.32H643.45a14.37,14.37,0,0,1,0-28.73h744a90.77,90.77,0,0,1,0,181.53h-744a14.37,14.37,0,0,1,0-28.73Z" transform="translate(95.53 -69.94)"/><path class="cls-16" d="M1414.66,986.36a90.76,90.76,0,0,0-90.75-90.77h63.56a90.77,90.77,0,0,1,0,181.53h-63.56A90.76,90.76,0,0,0,1414.66,986.36Z" transform="translate(95.53 -69.94)"/><g class="cls-17"><path class="cls-11" d="M629.09,1062.75a14.36,14.36,0,0,1,14.36-14.36H764.36V924.32H643.45a14.37,14.37,0,0,1,0-28.73H1234c43.75,0,79.21,40.64,79.21,90.77s-35.46,90.76-79.21,90.76H643.45A14.36,14.36,0,0,1,629.09,1062.75Z" transform="translate(95.53 -69.94)"/><path class="cls-16" d="M629.09,1062.75a14.36,14.36,0,0,1,14.36-14.36H764.36V924.32H643.45a14.37,14.37,0,0,1,0-28.73H1234c43.75,0,79.21,40.64,79.21,90.77s-35.46,90.76-79.21,90.76H643.45A14.36,14.36,0,0,1,629.09,1062.75Z" transform="translate(95.53 -69.94)"/></g><path class="cls-12" d="M664.12,916.93c1.63-.12,3.24-.25,4.89-.25h533a69.68,69.68,0,1,1,0,139.35H669c-1.65,0-3.26-.14-4.89-.25Z" transform="translate(95.53 -69.94)"/><rect class="cls-13" x="812.13" y="945.22" width="462.96" height="8.45"/><rect class="cls-13" x="806.98" y="878.38" width="462.95" height="8.46"/><rect class="cls-13" x="992.79" y="913.82" width="227.23" height="7.07"/><polygon class="cls-11" points="922.47 954.44 945.65 924.9 970.52 954.44 970.52 878.38 922.47 878.38 922.47 954.44"/><path class="cls-4" d="M1362.18,1604.59h-123V1478.37h123a14.62,14.62,0,0,0,0-29.23H605.23a92.34,92.34,0,0,0,0,184.68h757a14.62,14.62,0,0,0,0-29.23Z" transform="translate(95.53 -69.94)"/><path class="cls-10" d="M577.56,1541.48a92.34,92.34,0,0,1,92.34-92.34H605.23a92.34,92.34,0,0,0,0,184.68H669.9A92.34,92.34,0,0,1,577.56,1541.48Z" transform="translate(95.53 -69.94)"/><path class="cls-11" d="M1376.79,1619.2a14.61,14.61,0,0,0-14.61-14.61h-123V1478.37h123a14.62,14.62,0,0,0,0-29.23H761.36c-44.5,0-80.58,41.34-80.58,92.34s36.08,92.34,80.58,92.34h600.82A14.61,14.61,0,0,0,1376.79,1619.2Z" transform="translate(95.53 -69.94)"/><path class="cls-10" d="M1376.79,1619.2a14.61,14.61,0,0,0-14.61-14.61h-123V1478.37h123a14.62,14.62,0,0,0,0-29.23H761.36c-44.5,0-80.58,41.34-80.58,92.34s36.08,92.34,80.58,92.34h600.82A14.61,14.61,0,0,0,1376.79,1619.2Z" transform="translate(95.53 -69.94)"/><path class="cls-12" d="M1341.15,1470.85c-1.65-.13-3.3-.26-5-.26H794a70.89,70.89,0,0,0,0,141.78h542.22c1.68,0,3.33-.14,5-.26Z" transform="translate(95.53 -69.94)"/><rect class="cls-13" x="912.28" y="1500.84" width="471" height="8.61"/><rect class="cls-13" x="917.52" y="1432.85" width="471" height="8.6"/><rect class="cls-13" x="968.31" y="1468.9" width="231.18" height="7.19"/><polygon class="cls-14" points="1271.02 1510.23 1247.44 1480.17 1222.13 1510.23 1222.13 1432.85 1271.02 1432.85 1271.02 1510.23"/><path class="cls-18" d="M853.81,1238.16c-1.51-.33-3.11-1.07-4.88-.86-21.83,2.67-27.71-30-27.71-30l-20.76-5-4.56,50.07h52.51S845.58,1241.83,853.81,1238.16Z" transform="translate(95.53 -69.94)"/><path class="cls-12" d="M872.85,1259.85l-.49-4.5a12,12,0,0,0-.41-3.88c-1.15-4.26-5.13-10.49-18.14-13.31-8.23,3.67-5.4,14.22-5.4,14.22H795.9l-.72,7.59Z" transform="translate(95.53 -69.94)"/><path class="cls-12" d="M822,1228.58a7.35,7.35,0,1,1-7.35-7.35A7.35,7.35,0,0,1,822,1228.58Z" transform="translate(95.53 -69.94)"/><path class="cls-19" d="M742.44,1246.7c-1.21-1-2.33-2.32-4-2.9-20.78-7.17-11.74-39.14-11.74-39.14l-16.48-13.55-26.05,43,47.2,23S733.43,1246.4,742.44,1246.7Z" transform="translate(95.53 -69.94)"/><path class="cls-12" d="M750,1274.55l1.54-4.26a12.14,12.14,0,0,0,1.33-3.67c.84-4.33,0-11.67-10.47-19.92-9-.3-11.09,10.42-11.09,10.42l-47.2-23-4,6.52Z" transform="translate(95.53 -69.94)"/><path class="cls-12" d="M718,1224.14a7.35,7.35,0,1,1-3.38-9.83A7.34,7.34,0,0,1,718,1224.14Z" transform="translate(95.53 -69.94)"/><polygon class="cls-20" points="885.15 912.49 831.88 853.71 931.51 846.35 932.18 1010.95 920.33 1141.9 893.74 1142.22 889.56 1004.34 885.15 912.49"/><polyline class="cls-20" points="831.88 853.71 830.78 1028.47 797.47 1132.69 820.99 1143.21 868.99 1025.85 892.5 909.55 916.75 855.18"/><path class="cls-21" d="M912.45,727.23l6.86-18.49s5.88-11.63,8.45-10.29-2.45,12.25-.73,13.23,15.79-20.57,15.79-20.57,8.45.36,8.45,6.61,1.11,11.14-.73,16.9-25.72,34.9-25.72,34.9" transform="translate(95.53 -69.94)"/><polyline class="cls-22" points="904.26 693.9 955.32 713.38 1007.12 656.06 1023.65 678.11 974.42 743.13 896.54 737.25"/><polygon class="cls-23" points="860.25 648.44 843.69 608.57 898.27 588.05 911.95 572.33 902.64 617.3 860.25 648.44"/><polygon class="cls-24" points="868.14 650.92 865.09 698.08 893.03 708.99 889.54 659.22 868.14 650.92"/><path class="cls-25" d="M807.12,687.24s21,59,0,62-29.7-20.08-29.7-20.08-6.55,2.62-11.35-5.68-2.18-12.59-2.18-12.59l4.8-2.25,2.62-.88-4.8-15.28Z" transform="translate(95.53 -69.94)"/><path class="cls-23" d="M766.45,692s10.44,31.28,20,37.84c17.78,12.23,30.69-4.26,30.69-4.26s5.13,23.32-10.47,25-28.27,2.56-39.4-44.92Z" transform="translate(95.53 -69.94)"/><polygon class="cls-12" points="917.48 741.66 881.94 781.57 838.7 736.5 857.58 692.34 875.31 692.34 886.29 700.05 888.41 692.34 901.96 692.34 917.48 741.66"/><path class="cls-26" d="M805.66,761.85l4.18,7.51-11.93,23.43,0,.28-.23-1-39-22.7,4.17-7.51s-18.45,8.91-27.4,31.51c-4.27,10.79.49,37.9,2.69,66.37,2.41,31.17-3.25,66.07-3.25,66.07l39,3.8h24.93l28.51-2.78,9.77,1.74L822.45,786.5Z" transform="translate(95.53 -69.94)"/><path class="cls-27" d="M788.35,798.71s-6.8-21.76-31.3-23.23S738,811.24,738,811.24s38.15,72.87,54.82,75.29c8.79,1.45,71.15-21.91,71.15-21.91l-3.28-8.77L856,843.45l-53.11,11.72Z" transform="translate(95.53 -69.94)"/><path class="cls-28" d="M868.22,858.86,878.1,856l9.38-5.46s10-7.23,11.56-14.47-7.69-22.64-11.49-23-14.48,11.69-14.48,11.69-2.34-3.84-6.17.23-5.43,19.19-5.43,19.19Z" transform="translate(95.53 -69.94)"/><path class="cls-23" d="M1601.82,1347.4s5.24,21.34,4.86,22.46,1.5,14.59,1.5,14.59l41.17,1.5s-9.73-10.48-13.85-12.35-17.21-30.69-17.21-30.69Z" transform="translate(95.53 -69.94)"/><path class="cls-23" d="M1526.09,1346.61l-.37,40.79-46.31-.12s10.26-13.72,23.74-15.54l2.54-23.68Z" transform="translate(95.53 -69.94)"/><path class="cls-7" d="M1503.91,899s-20.08,7.35-23,21.06-22,235.12-22,235.12l90.13-1.47L1516.16,919.6" transform="translate(95.53 -69.94)"/><path class="cls-20" d="M1556.64,1038.27s23.89,21.91,23.89,57.34,42.12,255.07,42.12,255.07l-20.12,3.22-72.29-224,0,1.17L1488.51,1049Z" transform="translate(95.53 -69.94)"/><polygon class="cls-20" points="1584.04 979.02 1625.75 1061.14 1621.99 1284.6 1599.99 1284.6 1581.44 1032.1 1582.39 979.28 1584.04 979.02"/><path class="cls-7" d="M1428.53,899.86l7-49.35,11.31,1.21-3.63,44.69,47.71,10.87-8.42,17.6c-13.49-3-38.56-8.68-45.84-10.86C1426.51,911,1428.53,899.86,1428.53,899.86Z" transform="translate(95.53 -69.94)"/><path class="cls-7" d="M1416.61,904.26c3-15.09,13.28-54.35,13.28-54.35l5.6.6-7,49.35s-2,11.12,8.09,14.16c7.28,2.18,32.35,7.85,45.84,10.86l-2.56,10.77-54.23-10.86S1413.59,919.35,1416.61,904.26Z" transform="translate(95.53 -69.94)"/><polygon class="cls-16" points="1369.14 741.31 1383.26 740.76 1379.53 753.92 1367.81 746 1369.14 741.31"/><polygon class="cls-12" points="1383.26 740.76 1381.27 747.76 1379.53 753.92 1431.85 789.3 1431.93 789.09 1431.85 789.07 1439.75 761.36 1446.31 738.34 1446.38 738.36 1446.4 738.29 1383.26 740.76"/><polygon class="cls-29" points="1439.38 761.12 1431.48 788.83 1431.56 788.85 1431.48 789.06 1379.16 753.67 1380.9 747.51 1439.38 761.12"/><path class="cls-30" d="M1694.4,906.71a26.26,26.26,0,0,0-2.7-.62l2.3.66-7.09,24.89-7.07,24.79-4.95-1.41a27.1,27.1,0,0,0,5.14,2.08,26.21,26.21,0,0,0,32.38-18c0-.07,0-.14,0-.21A26.19,26.19,0,0,0,1694.4,906.71Z" transform="translate(95.53 -69.94)"/><path class="cls-31" d="M1687.4,932.13l25.55,7.23c0,.07,0,.14,0,.21a26.22,26.22,0,0,1-37.52,15.94l4.95,1.41Z" transform="translate(95.53 -69.94)"/><polygon class="cls-7" points="1446.31 738.34 1446.38 738.36 1440.47 761.85 1440.61 761.88 1439.93 764.02 1439.37 766.21 1439.24 766.16 1431.93 789.09 1431.85 789.07 1446.31 738.34"/><polygon class="cls-12" points="1749.96 824.92 1787.51 835.63 1789.87 836.3 1775.41 887.03 1770.35 885.58 1734.78 875.44 1749.96 824.92"/><polygon class="cls-32" points="1446.38 738.36 1749.96 824.92 1744.79 842.13 1441.23 756.45 1446.38 738.36"/><polygon class="cls-10" points="1739.58 859.46 1734.78 875.44 1431.93 789.09 1436.34 773.6 1739.58 859.46"/><polyline class="cls-10" points="1441.23 756.45 1744.79 842.13 1739.58 859.46 1436.34 773.6"/><path class="cls-33" d="M1487.43,1013.27l2.11,39.25,68.54-16s-6.64-13.89-2.41-28.68-40.77-3.93-40.77-3.93Z" transform="translate(95.53 -69.94)"/><path class="cls-34" d="M1449.31,828.74s-27.93-3.47-24.91,2c.92,1.67-.45,10.12,4.83,12.08s22.34,2.57,25.36,1.21S1457.76,834.78,1449.31,828.74Z" transform="translate(95.53 -69.94)"/><path class="cls-23" d="M1567,848.24s7.45,32,2.19,49c0,0,.1,2.86-24.37,3.47s-60.09-13.36-60.09-13.36,16.39-20.23,14.77-35.6S1567,848.24,1567,848.24Z" transform="translate(95.53 -69.94)"/><path class="cls-35" d="M1536.43,863.9a9.71,9.71,0,1,0,9.71-9.71A9.7,9.7,0,0,0,1536.43,863.9Z" transform="translate(95.53 -69.94)"/><polygon class="cls-36" points="1639.02 794.28 1640.04 838.61 1655.08 840.5 1641.66 870.98 1593.64 869.9 1594.18 836.99 1608.89 836.32 1612.53 797.07 1639.02 794.28"/><path class="cls-23" d="M1506.75,821.42S1482.88,849.34,1497,868l15.37-35.61Z" transform="translate(95.53 -69.94)"/><path class="cls-37" d="M1507.83,827.62,1497,866.47s-4.47,28.64,23,22.7,30.64-44,30.64-44Z" transform="translate(95.53 -69.94)"/><path class="cls-23" d="M1506.36,832.18s36.42,28.61,52.18,29.7c11.5.8,10.18-4.67,10.18-4.67s-5.93-72-62.58-35.18Z" transform="translate(95.53 -69.94)"/><path class="cls-20" d="M1544.75,899.29s-23.23,27.32-29.15,26-3.67-23.76-3.67-23.76l-17.86,9.11s-12.22,32-15,47.7c-.15.85-.28,1.67-.38,2.41-1.81,14.5,11.78,21.74,11.78,21.74s-10.3,87.54-3.69,99.29,96.86,8.84,79.17-37.58,11-128.25,11-128.25Z" transform="translate(95.53 -69.94)"/><path class="cls-38" d="M1508,960.89c24.94-7.76,43.48-12.48,42.8-1.69-.51,8.26,2.15,55.82-3.06,69.52-21.37,2.31-61.23,61.23-63.19,47-1.72-39.19,6.38-92.81,6.38-92.81s-13.59-7.25-11.78-21.74c.09-.75.23-1.57.38-2.42C1484.83,962.24,1494,965.25,1508,960.89Z" transform="translate(95.53 -69.94)"/><path class="cls-14" d="M1550.87,900.63s-30.08,126.68-10.46,192.62c20.33,68.33,23.51,64.66,23.51,64.66l79.35-27.19S1573.55,965,1586.7,927.2C1598.44,893.46,1566.3,910.18,1550.87,900.63Z" transform="translate(95.53 -69.94)"/><path class="cls-39" d="M1569.46,1032.36s-4.5-3.13-7.16-1.66-8.91,7.53-8.91,7.53l9.55,6.53" transform="translate(95.53 -69.94)"/><path class="cls-40" d="M1586.32,1031.87c-5-4.86-14.11-3.62-20.24,2.75l-7,7.28,19.87,15.93,5.41-5.62C1590.49,1045.83,1591.37,1036.73,1586.32,1031.87Z" transform="translate(95.53 -69.94)"/><polygon class="cls-12" points="1670.16 954.3 1677.69 947.51 1693.49 960 1686.39 969.42 1670.16 954.3"/><path class="cls-7" d="M1647,958.33l-60.61-47.66s-9.65,5.75-12.59,13.84.05,15.73,3.15,20.54,41.67,29,41.67,29l-41.93,45.55,9.22,8.41,9.33,9.41s37.27-42.24,47.53-55.53S1647,958.33,1647,958.33Z" transform="translate(95.53 -69.94)"/><path class="cls-4" d="M1608.87,1394.8a7.35,7.35,0,0,0-8.75,5.59l-6.3,28.62h-88.77l5.6-25.46a7.35,7.35,0,0,0-14.35-3.16l-53.26,242a7.35,7.35,0,0,0,5.6,8.76,7.14,7.14,0,0,0,1.58.17,7.34,7.34,0,0,0,7.17-5.77l7.78-35.35H1554l-7.09,32.19a7.35,7.35,0,0,0,5.6,8.76,7.14,7.14,0,0,0,1.58.17,7.34,7.34,0,0,0,7.17-5.77l8.59-39a7.27,7.27,0,0,0,1-3.67c0-.23,0-.44-.07-.66l43.72-198.66A7.35,7.35,0,0,0,1608.87,1394.8Zm-18.28,48.9-6.26,28.45h-88.78l6.27-28.45Zm-15.31,69.58H1486.5l5.82-26.43h88.77Zm-9,41.12h-88.78l5.82-26.43H1572Zm-97.82,41.12,5.81-26.43H1563l-5.82,26.43Z" transform="translate(95.53 -69.94)"/><path class="cls-12" d="M1573.58,1652a7.36,7.36,0,0,1-7.17-5.77l-53.26-242a7.35,7.35,0,1,1,14.35-3.16l53.26,242a7.38,7.38,0,0,1-7.18,8.93Z" transform="translate(95.53 -69.94)"/><path class="cls-12" d="M1677.4,1652a7.35,7.35,0,0,1-7.17-5.77l-53.26-242a7.35,7.35,0,1,1,14.35-3.16l53.26,242a7.34,7.34,0,0,1-5.6,8.75A7.16,7.16,0,0,1,1677.4,1652Z" transform="translate(95.53 -69.94)"/><path class="cls-12" d="M1631.56,1444.38H1531.11a7.35,7.35,0,0,1,0-14.7h100.45a7.35,7.35,0,1,1,0,14.7Z" transform="translate(95.53 -69.94)"/><path class="cls-12" d="M1638.3,1487.52H1537.86a7.35,7.35,0,1,1,0-14.69H1638.3a7.35,7.35,0,1,1,0,14.69Z" transform="translate(95.53 -69.94)"/><path class="cls-12" d="M1647.07,1528.64H1546.62a7.35,7.35,0,1,1,0-14.69h100.45a7.35,7.35,0,0,1,0,14.69Z" transform="translate(95.53 -69.94)"/><path class="cls-12" d="M1657.85,1569.77H1557.4a7.35,7.35,0,0,1,0-14.7h100.45a7.35,7.35,0,1,1,0,14.7Z" transform="translate(95.53 -69.94)"/><path class="cls-12" d="M1664.59,1610.89H1564.15a7.35,7.35,0,1,1,0-14.69h100.44a7.35,7.35,0,1,1,0,14.69Z" transform="translate(95.53 -69.94)"/><path class="cls-10" d="M1477.85,1395.23a13.48,13.48,0,0,0,13.49,13.48H1635.6a13.48,13.48,0,0,0,13.49-13.48h0a13.49,13.49,0,0,0-13.49-13.48H1491.34a13.49,13.49,0,0,0-13.49,13.48Z" transform="translate(95.53 -69.94)"/><path class="cls-20" d="M1143.85,818.23a54.8,54.8,0,1,1-54.8-54.8A54.81,54.81,0,0,1,1143.85,818.23Z" transform="translate(95.53 -69.94)"/><path class="cls-41" d="M1167.47,843.24a4.33,4.33,0,0,1-4.33,4.33H1015a4.33,4.33,0,0,1-4.33-4.33V712.36A4.32,4.32,0,0,1,1015,708h148.18a4.32,4.32,0,0,1,4.33,4.32Z" transform="translate(95.53 -69.94)"/><path class="cls-12" d="M1149.62,772.19a4.37,4.37,0,0,1-4.36,4.37H1031.75a4.36,4.36,0,0,1-4.35-4.37h0a4.35,4.35,0,0,1,4.35-4.35h113.51a4.36,4.36,0,0,1,4.36,4.35Z" transform="translate(95.53 -69.94)"/><path class="cls-12" d="M1149.62,793.83a4.36,4.36,0,0,1-4.36,4.36H1031.75a4.35,4.35,0,0,1-4.35-4.36h0a4.35,4.35,0,0,1,4.35-4.36h113.51a4.36,4.36,0,0,1,4.36,4.36Z" transform="translate(95.53 -69.94)"/><path class="cls-12" d="M1149.62,815.46a4.37,4.37,0,0,1-4.36,4.37H1031.75a4.36,4.36,0,0,1-4.35-4.37h0a4.35,4.35,0,0,1,4.35-4.35h113.51a4.36,4.36,0,0,1,4.36,4.35Z" transform="translate(95.53 -69.94)"/><path class="cls-42" d="M1309.7,467.19c0-121.86-98.79-220.66-220.65-220.66s-220.66,98.8-220.66,220.66a220.62,220.62,0,0,0,115.38,194v29.57a60.57,60.57,0,0,0,60.57,60.57h89.41a60.57,60.57,0,0,0,60.58-60.57V661.16A220.61,220.61,0,0,0,1309.7,467.19Z" transform="translate(95.53 -69.94)"/><path class="cls-43" d="M933.83,594.07s-113.58-196.14,65.8-308.63C999.63,285.44,868,445.24,933.83,594.07Z" transform="translate(95.53 -69.94)"/><path class="cls-12" d="M1170.74,497.72c-9.84-11-19-10.56-25-8.28-15.69,6-27,31.85-31.22,51.82a65.36,65.36,0,0,1-8.84-2.82L1094.48,532c7.13-5.8,11.84-18.21,11.84-33.29,0-21-9.12-36.82-21.22-36.82s-21.21,15.83-21.21,36.82c0,15.55,5,28.27,12.53,33.81l-12.54,5.89a63.78,63.78,0,0,1-9,2.9c-4.24-20-15.52-45.82-31.22-51.82-6-2.28-15.17-2.7-25,8.28-8.4,9.37-8.56,22.39-.42,34,9,12.86,27.36,22.12,48.9,20.28.16,1.59.25,3.07.25,4.41V751.32h9.36V556.38a57.52,57.52,0,0,0-.34-5.86,72.63,72.63,0,0,0,11.14-3.53l.24-.1,18.68-8.79,14.82,8.6a4.6,4.6,0,0,0,.59.29,73.08,73.08,0,0,0,11.15,3.53,57.52,57.52,0,0,0-.34,5.86V751.32H1122V556.38c0-1.34.09-2.82.25-4.41,21.54,1.84,39.85-7.42,48.9-20.28C1179.3,520.11,1179.14,507.09,1170.74,497.72Zm-164.88,28.59c-5.58-7.95-5.68-16.3-.27-22.34,4.73-5.28,8.58-6.49,11.24-6.49a9.29,9.29,0,0,1,3.46.7c11.42,4.37,21.32,27,25.25,44.54C1027.89,544,1013.11,536.62,1005.86,526.31Zm79.24-.19c-5.6,0-11.85-11.75-11.85-27.46s6.25-27.46,11.85-27.46S1097,483,1097,498.66,1090.7,526.12,1085.1,526.12Zm78.4.19c-7.25,10.31-22,17.69-39.68,16.41,3.93-17.54,13.83-40.17,25.25-44.54,1.75-.66,7.09-2.71,14.7,5.79C1169.18,510,1169.08,518.36,1163.5,526.31Z" transform="translate(95.53 -69.94)"/><g class="cls-44"><path class="cls-45" d="M957.81,628.71A221.72,221.72,0,0,1,904.39,588a222.24,222.24,0,0,0,53.42,56.54Z" transform="translate(95.53 -69.94)"/><path class="cls-45" d="M1247.68,313.83a220.72,220.72,0,0,1-79.31,314.88v29.57a60.57,60.57,0,0,1-60.58,60.57h-89.41a60.22,60.22,0,0,1-31.44-8.79,60.57,60.57,0,0,0,57.4,41.24h89.41a60.57,60.57,0,0,0,60.58-60.57V661.16a220.69,220.69,0,0,0,53.35-347.33Z" transform="translate(95.53 -69.94)"/></g><polyline class="cls-46" points="740.87 593.22 740.87 643.61 684.07 596.77"/><rect class="cls-47" x="459.44" y="462.76" width="345.43" height="145.78" rx="39.45"/><path class="cls-12" d="M653.32,574.62a3.45,3.45,0,0,1-3.45,3.45H415.36a3.46,3.46,0,0,1-3.45-3.45h0a3.46,3.46,0,0,1,3.45-3.45H649.87a3.45,3.45,0,0,1,3.45,3.45Z" transform="translate(95.53 -69.94)"/><path class="cls-12" d="M653.32,604a3.45,3.45,0,0,1-3.45,3.45H415.36a3.46,3.46,0,0,1-3.45-3.45h0a3.46,3.46,0,0,1,3.45-3.45H649.87a3.45,3.45,0,0,1,3.45,3.45Z" transform="translate(95.53 -69.94)"/><path class="cls-12" d="M653.32,633.4a3.44,3.44,0,0,1-3.45,3.45H415.36a3.45,3.45,0,0,1-3.45-3.45h0a3.46,3.46,0,0,1,3.45-3.45H649.87a3.45,3.45,0,0,1,3.45,3.45Z" transform="translate(95.53 -69.94)"/><polyline class="cls-48" points="1738.62 708.95 1738.62 742.62 1776.58 711.32"/><rect class="cls-49" x="1695.86" y="621.77" width="230.82" height="97.41" rx="26.36"/><path class="cls-12" d="M1637.76,719.73a2.3,2.3,0,0,0,2.31,2.3h156.7a2.3,2.3,0,0,0,2.3-2.3h0a2.3,2.3,0,0,0-2.3-2.31h-156.7a2.3,2.3,0,0,0-2.31,2.31Z" transform="translate(95.53 -69.94)"/><path class="cls-12" d="M1637.76,739.37a2.3,2.3,0,0,0,2.31,2.3h156.7a2.3,2.3,0,0,0,2.3-2.3h0a2.3,2.3,0,0,0-2.3-2.31h-156.7a2.3,2.3,0,0,0-2.31,2.31Z" transform="translate(95.53 -69.94)"/><path class="cls-12" d="M1637.76,759a2.3,2.3,0,0,0,2.31,2.3h156.7a2.3,2.3,0,0,0,2.3-2.3h0a2.3,2.3,0,0,0-2.3-2.31h-156.7a2.3,2.3,0,0,0-2.31,2.31Z" transform="translate(95.53 -69.94)"/></g></g></svg>