<svg xmlns="http://www.w3.org/2000/svg" xmlns:xlink="http://www.w3.org/1999/xlink" viewBox="0 0 2477.52 1593.98"><defs><style>.cls-1{fill:none;}.cls-2{isolation:isolate;}.cls-3{fill:url(#linear-gradient);}.cls-30,.cls-4{fill:#fff;}.cls-5{fill:#97cbee;}.cls-6{clip-path:url(#clip-path);}.cls-14,.cls-7{mix-blend-mode:overlay;}.cls-7{fill:url(#linear-gradient-2);}.cls-8{fill:url(#linear-gradient-3);}.cls-9{fill:url(#linear-gradient-4);}.cls-10{fill:#eb214d;}.cls-11{fill:#e5e5e5;}.cls-11,.cls-15,.cls-18{mix-blend-mode:multiply;}.cls-12{fill:url(#linear-gradient-5);}.cls-13{fill:url(#linear-gradient-6);}.cls-14{fill:url(#linear-gradient-7);}.cls-15{fill:#e6e7e8;}.cls-16{fill:url(#linear-gradient-8);}.cls-17{fill:url(#linear-gradient-9);}.cls-18{fill:#d1d3d4;}.cls-19{fill:url(#linear-gradient-10);}.cls-20{fill:url(#linear-gradient-11);}.cls-21{fill:url(#linear-gradient-12);}.cls-22{fill:url(#linear-gradient-13);}.cls-23{fill:url(#linear-gradient-14);}.cls-24{fill:url(#linear-gradient-15);}.cls-25{fill:url(#linear-gradient-16);}.cls-26{fill:url(#linear-gradient-17);}.cls-27{fill:url(#linear-gradient-18);}.cls-28{fill:url(#linear-gradient-19);}.cls-29{fill:url(#linear-gradient-20);}.cls-30,.cls-31{opacity:0.4;}.cls-32{fill:url(#linear-gradient-21);}.cls-33{fill:url(#linear-gradient-22);}.cls-34{fill:url(#linear-gradient-23);}.cls-35{fill:url(#linear-gradient-24);}.cls-36{fill:url(#linear-gradient-25);}.cls-37{fill:url(#linear-gradient-26);}.cls-38{fill:url(#linear-gradient-27);}.cls-39{fill:url(#linear-gradient-28);}.cls-40{fill:#f1605e;}.cls-41{fill:url(#linear-gradient-29);}.cls-42{fill:url(#linear-gradient-30);}.cls-43{fill:url(#linear-gradient-31);}.cls-44{fill-rule:evenodd;fill:url(#linear-gradient-32);}</style><linearGradient id="linear-gradient" x1="22.47" y1="972.47" x2="1808.34" y2="972.47" gradientTransform="matrix(1, 0.07, -0.07, 1, 136.17, -12.29)" gradientUnits="userSpaceOnUse"><stop offset="0" stop-color="#272660"/><stop offset="1" stop-color="#1b0f2d"/></linearGradient><clipPath id="clip-path" transform="translate(278.82 -362.95)"><path class="cls-1" d="M1039.12,651.39c-115.35-14.9-210.64-95.26-286.56-172.34-15-11.64-30.35-22.91-46.12-33.49a507.49,507.49,0,0,0-48.93-29.22,570.26,570.26,0,0,0-58.85-25.21c-139-50.35-287.93-38.52-411,93.52a282.62,282.62,0,0,0-40.29,48.42,236.62,236.62,0,0,0-35.09,86.14,229.77,229.77,0,0,0-3.85,48.46C105.57,816,233.39,912,257.75,1048c21.3,82-43.87,151.51-55.42,233.82a258.59,258.59,0,0,0-3.57,47.2c.68,31.37,8,62.42,25.7,92.66a335.84,335.84,0,0,0,35.45,50.6C355.76,1585.7,540.56,1660.77,774.05,1583c33.36-11.1,63.83-21.54,91.89-31.32s53.67-18.93,77.22-27.55c152.79-102.27,328-100,502.41-79.74,21.81,2.53,43.61,5.35,65.39,8.3,71,15.31,141.44-14.12,197-57.71,114.5-97.49,174.22-240.79,160.78-391.69-18.63-190.72-142-388.56-341.35-415.94a304.64,304.64,0,0,0-69.57-1.28,299.93,299.93,0,0,0-69.4,15.19,393.7,393.7,0,0,0-62.45,24.3c-21.29,7.93-42.83,15.86-64.55,22.76-65.17,20.71-132.11,32.1-199,5.71C1047.88,652.47,1039.12,651.39,1039.12,651.39Z"/></clipPath><linearGradient id="linear-gradient-2" x1="-39.36" y1="1353.32" x2="1069.63" y2="1353.32" gradientUnits="userSpaceOnUse"><stop offset="0.01" stop-color="#7b2d8b"/><stop offset="0.99" stop-color="#fff" stop-opacity="0"/></linearGradient><linearGradient id="linear-gradient-3" x1="232.26" y1="562.08" x2="1607.1" y2="562.08" xlink:href="#linear-gradient-2"/><linearGradient id="linear-gradient-4" x1="-67.01" y1="1994.66" x2="630.32" y2="1340.81" gradientTransform="translate(-173.51 -280.67) rotate(-3.02)" gradientUnits="userSpaceOnUse"><stop offset="0.39" stop-color="#f9ad1c"/><stop offset="1" stop-color="#fff"/></linearGradient><linearGradient id="linear-gradient-5" x1="458.54" y1="1060.32" x2="637.58" y2="1060.32" gradientTransform="matrix(1, -0.05, 0.05, 1, -229.23, -299.16)" gradientUnits="userSpaceOnUse"><stop offset="0.1" stop-color="#fff"/><stop offset="0.95" stop-color="#d1d2d3"/></linearGradient><linearGradient id="linear-gradient-6" x1="583.57" y1="1037.96" x2="603.45" y2="1037.96" gradientTransform="matrix(1, -0.05, 0.05, 1, -229.23, -299.16)" gradientUnits="userSpaceOnUse"><stop offset="0" stop-color="#272660"/><stop offset="1" stop-color="#9e2064"/></linearGradient><linearGradient id="linear-gradient-7" x1="1145.07" y1="801.86" x2="2198.7" y2="801.86" xlink:href="#linear-gradient-2"/><linearGradient id="linear-gradient-8" x1="1383.87" y1="1028.87" x2="1369.3" y2="913.96" gradientUnits="userSpaceOnUse"><stop offset="0.3" stop-color="#ffda8c"/><stop offset="0.43" stop-color="#fdc785"/><stop offset="0.72" stop-color="#f79773"/><stop offset="1" stop-color="#f1605e"/></linearGradient><linearGradient id="linear-gradient-9" x1="1244.29" y1="1004.3" x2="1423.37" y2="758.42" xlink:href="#linear-gradient-8"/><linearGradient id="linear-gradient-10" x1="1653.39" y1="473.16" x2="1733.07" y2="473.16" gradientTransform="matrix(1, 0, 0, 1, 0, 0)" xlink:href="#linear-gradient"/><linearGradient id="linear-gradient-11" x1="1432.82" y1="834.99" x2="1471.52" y2="834.99" gradientUnits="userSpaceOnUse"><stop offset="0" stop-color="#a5769c"/><stop offset="1" stop-color="#7b2d8c"/></linearGradient><linearGradient id="linear-gradient-12" x1="1193.77" y1="836.61" x2="1410.81" y2="836.61" xlink:href="#linear-gradient-11"/><linearGradient id="linear-gradient-13" x1="1185.23" y1="836.61" x2="1356.74" y2="836.61" gradientUnits="userSpaceOnUse"><stop offset="0" stop-color="#a5769c"/><stop offset="1" stop-color="#262262"/></linearGradient><linearGradient id="linear-gradient-14" x1="938.83" y1="799.93" x2="920.33" y2="917.82" xlink:href="#linear-gradient-8"/><linearGradient id="linear-gradient-15" x1="930.65" y1="690.53" x2="877.08" y2="877.16" xlink:href="#linear-gradient-8"/><linearGradient id="linear-gradient-16" x1="918.45" y1="784.58" x2="905.89" y2="864.64" xlink:href="#linear-gradient-8"/><linearGradient id="linear-gradient-17" x1="900.55" y1="1009.52" x2="1387.23" y2="1009.52" gradientUnits="userSpaceOnUse"><stop offset="0" stop-color="#97cbee"/><stop offset="1" stop-color="#1c75bc"/></linearGradient><linearGradient id="linear-gradient-18" x1="1125.2" y1="1267.18" x2="1324.11" y2="1267.18" gradientUnits="userSpaceOnUse"><stop offset="0" stop-color="#92278f"/><stop offset="1" stop-color="#1c75bc"/></linearGradient><linearGradient id="linear-gradient-19" x1="1225.27" y1="1228.71" x2="1442.44" y2="1228.71" gradientTransform="matrix(1, 0, 0, 1, 0, 0)" xlink:href="#linear-gradient"/><linearGradient id="linear-gradient-20" x1="1303.32" y1="1267.63" x2="1582.34" y2="1267.63" xlink:href="#linear-gradient-18"/><linearGradient id="linear-gradient-21" x1="-402.42" y1="1066.13" x2="-418.4" y2="1168.02" gradientTransform="matrix(-0.99, -0.13, -0.13, 0.99, 1060.18, 71.6)" xlink:href="#linear-gradient-8"/><linearGradient id="linear-gradient-22" x1="1379.75" y1="1085.35" x2="1320.53" y2="1291.66" xlink:href="#linear-gradient-8"/><linearGradient id="linear-gradient-23" x1="1356.19" y1="1150.71" x2="1336.66" y2="1275.23" xlink:href="#linear-gradient-8"/><linearGradient id="linear-gradient-24" x1="1534.21" y1="1125.74" x2="1455.28" y2="1418.66" xlink:href="#linear-gradient-17"/><linearGradient id="linear-gradient-25" x1="582.46" y1="908.52" x2="742.21" y2="908.52" gradientTransform="translate(126.82 -80.08) rotate(7.65)" xlink:href="#linear-gradient"/><linearGradient id="linear-gradient-26" x1="240.74" y1="537.77" x2="304.87" y2="537.77" gradientTransform="matrix(1, 0, 0, 1, 0, 0)" xlink:href="#linear-gradient"/><linearGradient id="linear-gradient-27" x1="1000.83" y1="657.49" x2="1097.58" y2="657.49" gradientTransform="translate(1678.89 -408.64) rotate(88.49)" gradientUnits="userSpaceOnUse"><stop offset="0" stop-color="#f15b2a"/><stop offset="1" stop-color="#f8eb32"/></linearGradient><linearGradient id="linear-gradient-28" x1="642.28" y1="1232.87" x2="867.66" y2="1232.87" gradientUnits="userSpaceOnUse"><stop offset="0" stop-color="#28a8e0"/><stop offset="1" stop-color="#97cbee"/></linearGradient><linearGradient id="linear-gradient-29" x1="951.21" y1="1301.75" x2="990.67" y2="1301.75" gradientTransform="matrix(1, 0, 0, 1, 0, 0)" xlink:href="#linear-gradient-27"/><linearGradient id="linear-gradient-30" x1="1486.06" y1="1850.32" x2="1692.32" y2="1850.32" gradientTransform="translate(101.63 -934.63)" gradientUnits="userSpaceOnUse"><stop offset="0" stop-color="#faad1a"/><stop offset="1" stop-color="#ffda8c"/></linearGradient><linearGradient id="linear-gradient-31" x1="-4812.97" y1="-764.44" x2="-4696.47" y2="-764.44" gradientTransform="translate(6575.56 1916.28)" xlink:href="#linear-gradient-30"/><linearGradient id="linear-gradient-32" x1="55.98" y1="1127.85" x2="221.59" y2="1127.85" gradientTransform="matrix(-0.7, 0.71, 0.71, 0.7, -318.38, 99.3)" xlink:href="#linear-gradient"/></defs><g class="cls-2"><g id="Layer_1" data-name="Layer 1"><path class="cls-3" d="M1044.37,650.74C929,635.84,833.72,555.49,757.81,478.41c-15-11.65-30.36-22.92-46.12-33.5a508.71,508.71,0,0,0-48.93-29.22,573.39,573.39,0,0,0-58.85-25.21C464.91,340.13,316,352,192.86,484a283.14,283.14,0,0,0-40.3,48.42,236.6,236.6,0,0,0-35.08,86.14A229.77,229.77,0,0,0,113.62,667c-2.8,148.36,125,244.36,149.37,380.35,21.3,82-43.87,151.51-55.41,233.81a258.61,258.61,0,0,0-3.58,47.2c.68,31.37,8,62.42,25.71,92.66a336.49,336.49,0,0,0,35.44,50.6C361,1585.05,545.81,1660.12,779.3,1582.38c33.35-11.1,63.83-21.54,91.89-31.32s53.66-18.93,77.22-27.55c152.79-102.27,328-100,502.41-79.74,21.81,2.53,43.61,5.35,65.39,8.3,71,15.31,141.44-14.12,197-57.71,114.5-97.48,174.23-240.79,160.79-391.69C1855.39,812,1732,614.11,1532.67,586.73a304.66,304.66,0,0,0-69.57-1.27,299.9,299.9,0,0,0-69.4,15.18A392.41,392.41,0,0,0,1331.25,625c-21.3,7.92-42.83,15.85-64.55,22.76-65.17,20.7-132.12,32.09-199,5.7C1053.12,651.82,1044.37,650.74,1044.37,650.74Z" transform="translate(278.82 -362.95)"/><path class="cls-4" d="M411.3,1302.82c0,6.91,4.77,11.67,11.67,11.67-6.9,0-11.67,4.77-11.67,11.67,0-6.9-4.77-11.67-11.67-11.67C406.53,1314.49,411.3,1309.73,411.3,1302.82Z" transform="translate(278.82 -362.95)"/><path class="cls-4" d="M331.16,1219.51c0,6.9,4.76,11.67,11.67,11.67-6.91,0-11.67,4.76-11.67,11.66,0-6.9-4.77-11.66-11.67-11.66C326.39,1231.18,331.16,1226.41,331.16,1219.51Z" transform="translate(278.82 -362.95)"/><path class="cls-4" d="M288.63,1428.86c0,6.9,4.77,11.67,11.67,11.67-6.9,0-11.67,4.76-11.67,11.67,0-6.91-4.76-11.67-11.67-11.67C283.87,1440.53,288.63,1435.76,288.63,1428.86Z" transform="translate(278.82 -362.95)"/><path class="cls-4" d="M616.32,1351.84c0,6.9,4.77,11.67,11.66,11.67-6.89,0-11.66,4.76-11.66,11.67,0-6.91-4.77-11.67-11.67-11.67C611.55,1363.51,616.32,1358.74,616.32,1351.84Z" transform="translate(278.82 -362.95)"/><path class="cls-4" d="M494.16,1482.26c0,6.91,4.77,11.67,11.66,11.67-6.89,0-11.66,4.77-11.66,11.67,0-6.9-4.77-11.67-11.67-11.67C489.39,1493.93,494.16,1489.17,494.16,1482.26Z" transform="translate(278.82 -362.95)"/><path class="cls-4" d="M563.83,1407.66c0,12.34,8.52,20.87,20.87,20.87-12.35,0-20.87,8.52-20.87,20.87,0-12.35-8.53-20.87-20.88-20.87C555.3,1428.53,563.83,1420,563.83,1407.66Z" transform="translate(278.82 -362.95)"/><path class="cls-4" d="M319.49,1335.79c0,9.49,6.56,16,16.05,16-9.49,0-16.05,6.55-16.05,16.05,0-9.5-6.55-16.05-16.05-16.05C312.94,1351.84,319.49,1345.28,319.49,1335.79Z" transform="translate(278.82 -362.95)"/><path class="cls-4" d="M463,1398.09c0,8.2,5.66,13.86,13.86,13.86-8.2,0-13.86,5.66-13.86,13.85,0-8.19-5.66-13.85-13.86-13.85C457.33,1412,463,1406.29,463,1398.09Z" transform="translate(278.82 -362.95)"/><path class="cls-4" d="M1815.18,820.19c0,7.42,5.12,12.53,12.53,12.53-7.41,0-12.53,5.13-12.53,12.55,0-7.42-5.13-12.55-12.55-12.55C1810.05,832.72,1815.18,827.61,1815.18,820.19Z" transform="translate(278.82 -362.95)"/><path class="cls-4" d="M1729.07,730.67c0,7.41,5.12,12.54,12.54,12.54-7.42,0-12.54,5.12-12.54,12.53,0-7.41-5.13-12.53-12.54-12.53C1723.94,743.21,1729.07,738.08,1729.07,730.67Z" transform="translate(278.82 -362.95)"/><path class="cls-4" d="M1683.37,955.61c0,7.42,5.13,12.54,12.54,12.54-7.41,0-12.54,5.12-12.54,12.54,0-7.42-5.12-12.54-12.53-12.54C1678.25,968.15,1683.37,963,1683.37,955.61Z" transform="translate(278.82 -362.95)"/><path class="cls-4" d="M1904.21,1013c0,7.43,5.12,12.54,12.53,12.54-7.41,0-12.53,5.13-12.53,12.54,0-7.41-5.12-12.54-12.54-12.54C1899.09,1025.53,1904.21,1020.42,1904.21,1013Z" transform="translate(278.82 -362.95)"/><path class="cls-4" d="M1716.53,855.61c0,10.2,7,17.25,17.25,17.25-10.2,0-17.25,7-17.25,17.24,0-10.21-7-17.24-17.25-17.24C1709.49,872.86,1716.53,865.81,1716.53,855.61Z" transform="translate(278.82 -362.95)"/><path class="cls-4" d="M1870.72,922.55c0,8.81,6.08,14.9,14.89,14.9-8.81,0-14.89,6.07-14.89,14.88,0-8.81-6.09-14.88-14.89-14.88C1864.63,937.45,1870.72,931.36,1870.72,922.55Z" transform="translate(278.82 -362.95)"/><path class="cls-4" d="M613.13,588c0,7.41,5.12,12.53,12.53,12.53-7.41,0-12.53,5.13-12.53,12.54,0-7.41-5.13-12.54-12.54-12.54C608,600.51,613.13,595.39,613.13,588Z" transform="translate(278.82 -362.95)"/><path class="cls-4" d="M527,498.46c0,7.41,5.12,12.53,12.54,12.53-7.42,0-12.54,5.12-12.54,12.54,0-7.42-5.12-12.54-12.54-12.54C521.9,511,527,505.87,527,498.46Z" transform="translate(278.82 -362.95)"/><path class="cls-4" d="M481.33,723.4c0,7.42,5.12,12.54,12.53,12.54-7.41,0-12.53,5.12-12.53,12.54,0-7.42-5.12-12.54-12.54-12.54C476.21,735.94,481.33,730.82,481.33,723.4Z" transform="translate(278.82 -362.95)"/><path class="cls-4" d="M833.42,640.64c0,7.42,5.12,12.54,12.54,12.54-7.42,0-12.54,5.12-12.54,12.54,0-7.42-5.12-12.54-12.54-12.54C828.3,653.18,833.42,648.06,833.42,640.64Z" transform="translate(278.82 -362.95)"/><path class="cls-4" d="M702.16,780.78c0,7.42,5.13,12.54,12.53,12.54-7.4,0-12.53,5.13-12.53,12.54,0-7.41-5.12-12.54-12.54-12.54C697,793.32,702.16,788.2,702.16,780.78Z" transform="translate(278.82 -362.95)"/><path class="cls-4" d="M777,700.62c0,13.26,9.16,22.42,22.42,22.42C786.18,723,777,732.2,777,745.47c0-13.27-9.16-22.43-22.43-22.43C767.86,723,777,713.88,777,700.62Z" transform="translate(278.82 -362.95)"/><path class="cls-4" d="M514.48,623.4c0,10.2,7,17.24,17.25,17.24-10.2,0-17.25,7-17.25,17.25,0-10.21-7-17.25-17.25-17.25C507.44,640.64,514.48,633.6,514.48,623.4Z" transform="translate(278.82 -362.95)"/><path class="cls-4" d="M668.67,690.34c0,8.8,6.09,14.89,14.9,14.89-8.81,0-14.9,6.08-14.9,14.88,0-8.8-6.08-14.88-14.89-14.88C662.59,705.23,668.67,699.14,668.67,690.34Z" transform="translate(278.82 -362.95)"/><path class="cls-5" d="M373.33,736.39a17.08,17.08,0,1,1-17.07-17.07A17.08,17.08,0,0,1,373.33,736.39Z" transform="translate(278.82 -362.95)"/><g class="cls-6"><path class="cls-7" d="M-39.36,1534.07c.48-10.56,19.26-193.18,185.06-192.79s166.63,60.4,228.82-67.35,122.65-184.56,246.37-166.88,232.17-.53,310.91-65.66,144.23-99.57,137.33-48.62S898.37,1078.7,962,1155.64s-13,211.11-111.59,206.68S567.85,1289.66,622,1419.11s-154.43,296.47-275.4,319.27" transform="translate(278.82 -362.95)"/><polyline class="cls-8" points="1470.59 423.53 357.47 10 232.26 1114.15 1607.1 524.88"/><path class="cls-9" d="M405.37,1352.44C120,1320.83-21.34,1154.69-44.28,1038.3-60,958.38,50.93,880.09,50.93,880.09c192-88.54,185.24-83.47,185.24-83.47l73.73-39L299,736.78,60.9,803.14c-416.58,29.45-451.18,576.36-97.48,699.56s-153.36,454.24-153.36,454.24l651.53-34.39C689.27,1815.33,690.78,1384,405.37,1352.44Z" transform="translate(278.82 -362.95)"/><path class="cls-10" d="M266.65,744.4,279,777.6a47.4,47.4,0,0,0,4.91-.59c9.31-1.61,23.5-6.84,31.82-23.46,1.87-3.73,2.28-6.22,1.61-7.74-.39-1.62-2.22-3.34-6-5.18a42.5,42.5,0,0,0-38.58.13A46.44,46.44,0,0,0,266.65,744.4Z" transform="translate(278.82 -362.95)"/><path class="cls-10" d="M379.74,745.26l-78.39,29.25s-10.2,3.8-7.11,12.08l12.36,33.15,22.75-8.12Z" transform="translate(278.82 -362.95)"/><path class="cls-4" d="M344,824.18a9.09,9.09,0,1,1,5.3-11.71A9.09,9.09,0,0,1,344,824.18Z" transform="translate(278.82 -362.95)"/><polygon class="cls-10" points="594.78 472.22 573.87 473.77 571.95 468.66 587.92 454.88 615.92 444.34 622.49 461.78 594.78 472.22"/><path class="cls-11" d="M343.44,824.34l.51-.16a9.08,9.08,0,0,0,5.8-9.7,9.37,9.37,0,0,1-2,1.08l-.51.17.15.39-27.71,10.44-20.91,1.55-.4-1.06-5.29,4.56,1.92,5.11,20.91-1.55,27.71-10.44Z" transform="translate(278.82 -362.95)"/><path class="cls-10" d="M363.36,701.33,285,730.57s-10.2,3.8-13.29-4.49l-12.36-33.14,22.51-8.76Z" transform="translate(278.82 -362.95)"/><path class="cls-4" d="M284.7,665.07a9.09,9.09,0,1,0,11.67,5.38A9.09,9.09,0,0,0,284.7,665.07Z" transform="translate(278.82 -362.95)"/><polygon class="cls-10" points="535.1 312.19 518.28 324.72 520.17 329.83 541.27 329.79 569.34 319.43 562.88 301.94 535.1 312.19"/><path class="cls-11" d="M284.14,665.34l.5-.22a9.08,9.08,0,0,1,10.73,3.54,9.5,9.5,0,0,0-2.25.51l-.49.21-.15-.39-27.77,10.25-16.82,12.53.39,1.06h-7l-1.89-5.12,16.82-12.52L284,664.94Z" transform="translate(278.82 -362.95)"/><path class="cls-12" d="M284.38,728.35l19.34,51.86c10.21-4.1,75.68-29.66,101.33-40.08l.17.44.6-.76,5.63-2.29,10.74-4L423,733s10.7-3.74,13.31-7.14S463.41,700,461.91,696c-.09-.25-.18-.47-.27-.71l-2.26-6.09c-.09-.24-.18-.46-.27-.71-1.51-4-34.76-5-38.95-5.8S405.42,686,405.42,686l-.92.11-10.74,4L388,692l-.95-.18.16.45C361,701.2,294.79,724.76,284.38,728.35Z" transform="translate(278.82 -362.95)"/><path class="cls-10" d="M459.08,702c.89-1,1.77-1.94,2.62-3,3.37-4.1,4.39-6.69,3.67-8.12-.18-1-1.18-1.9-3.16-2.77a30,30,0,0,0-4.68-1.46c-1.5-.36-3-.64-4.49-.89Z" transform="translate(278.82 -362.95)"/><polygon class="cls-10" points="557.44 401.88 553.79 392.11 655.88 356.94 657.62 361.61 557.44 401.88"/><path class="cls-13" d="M428.28,705.42a9.94,9.94,0,1,1-10.45-9.4A9.94,9.94,0,0,1,428.28,705.42Z" transform="translate(278.82 -362.95)"/><path class="cls-14" d="M2198.66,553.26c.51,10.56-1.26,194.13-166.38,209.12s-171.52-44.69-221.59,88.27-105,195.14-229.84,189-231.13,22-303.49,94.18S1143,1246.36,1145.13,1195s162-101.39,91.62-172.11-6.63-211.4,91.94-216.13,288,46.16,222.1-77.71,126.28-309.51,244.62-343.42" transform="translate(278.82 -362.95)"/></g><path class="cls-4" d="M1393.57,705.79c40.42.46,65,24.07,80.61,55.55s22.18,70.81,26.26,102.81c.56,3,1.13,5.88,1.73,8.76a294.77,294.77,0,0,0,37.09,88.58q2.51,4.13,5,8.24l5.12,8.31c25.76,35.45,44,81.51,24.47,124.65a88,88,0,0,1-3.5,8.36c-11.83,24.56-36,43.14-78.72,48.17-41.43,4.87-94.7.14-142.75-11.69-24-5.91-46.77-13.59-66.36-22.65-36.16-12.85-74.86-49.27-61.2-85.7,29.59-72.85,43.25-145.7,52.36-223.1,4.55-38.71,25-75.13,56.06-96.76C1350.69,705.87,1371.78,704.86,1393.57,705.79Z" transform="translate(278.82 -362.95)"/><path class="cls-15" d="M1265.76,1047.72s66-152,66-235.06c0,0,94.48,19.35,110.42,74s89.35,137.17,106.43,153.1" transform="translate(278.82 -362.95)"/><path class="cls-16" d="M1440.21,986.1c-32.16-48.22-32.16-121.65-32.16-121.65l-72.56,80.67s13.94,73.29-11.11,101.75L1422,992.93" transform="translate(278.82 -362.95)"/><path class="cls-15" d="M1336.71,938.25l3,47s67.54-24.28,69.81-100.17S1336.71,938.25,1336.71,938.25Z" transform="translate(278.82 -362.95)"/><path class="cls-17" d="M1272.51,843.1s14.12,121.71,32.51,128.11c67.41,23.42,101.49-76.55,101.49-76.55s22.84,10.48,33.08-13-1.76-57.6-23.54-47.67l-32.47-34.46s-88.63-8.58-91.64-7.4S1272.51,843.1,1272.51,843.1Z" transform="translate(278.82 -362.95)"/><path class="cls-4" d="M1395.53,762s-6.64,134.51,4.74,142.47l23.15,34.15s9.86-151,22.76-152.15" transform="translate(278.82 -362.95)"/><path class="cls-18" d="M1276.57,872.42l4.37,26.94s69.25-3.41,81-3c17.78.57,48.94-9.68,60.89-18.22s25.05-23.33,25.05-23.33" transform="translate(278.82 -362.95)"/><polyline class="cls-19" points="1733.07 444.82 1653.39 424.33 1653.86 521.99 1732.31 499.84"/><path class="cls-20" d="M1471.52,835c0,15.25-8.67,27.61-19.35,27.61s-19.35-12.36-19.35-27.61,8.66-27.6,19.35-27.6S1471.52,819.75,1471.52,835Z" transform="translate(278.82 -362.95)"/><path class="cls-21" d="M1410.81,836.61a51.23,51.23,0,0,1-51.23,51.22H1245a51.22,51.22,0,0,1-51.23-51.22h0A51.23,51.23,0,0,1,1245,785.38h114.58a51.23,51.23,0,0,1,51.23,51.23Z" transform="translate(278.82 -362.95)"/><path class="cls-22" d="M1356.74,836.61c0,28.29-.17,51.22-28.46,51.22H1213.69c-28.29,0-28.46-22.93-28.46-51.22h0c0-28.29.17-51.23,28.46-51.23h114.59c28.29,0,28.46,22.94,28.46,51.23Z" transform="translate(278.82 -362.95)"/><path class="cls-23" d="M931,826.51s29,50.94,39.85,61.18l-63.18,12-25.14-32.73" transform="translate(278.82 -362.95)"/><path class="cls-24" d="M908.25,867.15s24.28-6.07,27.32-31.87,6.07-63.75,6.07-63.75-8.26-70.61-17.37-72.13-48.57,12.14-50.09,24.28c-.77,6.21.41,32.29-2.46,57.3a315.44,315.44,0,0,1-9.58,46.95S855.12,879.29,908.25,867.15Z" transform="translate(278.82 -362.95)"/><path class="cls-25" d="M931.67,756.32s-22.2,5.69-23.34,27.88,0,22.2,0,22.2-19.46-2.23-21.05,24.47c-2.09,34.91,2,38,2,38s27.56.1,40.65-21,4-90.5,4-90.5" transform="translate(278.82 -362.95)"/><path class="cls-26" d="M1324.11,1006.59l-225.39,43.26L965.82,850.79l-68.3,48.38s119.62,252.36,151.12,266.79S1379,1122,1379,1122,1409.25,1014.15,1324.11,1006.59Z" transform="translate(278.82 -362.95)"/><path class="cls-27" d="M1324.11,1006.59c-8.27.34-42.81-.89-55.69,12.1-49.1,49.53-92.52,148.07-80.06,186.69,22.76,70.57-63.16,265.8-63.16,265.8s57.46,60.89,91.61,56.34c8.82-1.18,62.3-355,75.8-439.72C1294.8,1074.08,1321.64,1017,1324.11,1006.59Z" transform="translate(278.82 -362.95)"/><path class="cls-28" d="M1442.44,968.08c-5.65-4.48-18.46-8.2-18.46-8.2l-63.17,58.81c-4.74,0-17.28-19.3-22.77-25.61,0,0-13.07,9.72-15.55,10.82-2.47,10.36-27.69,70.18-29.88,83.9-13.5,84.68-52.79,305.29-67.34,386.64l179.74,23.1C1429,1109,1405,990.94,1442.44,968.08Z" transform="translate(278.82 -362.95)"/><path class="cls-29" d="M1442.44,968.08c-37.41,22.86-115.18,177.75-139.12,566.27,0,0,84.24,53.49,127.49,23.9s93.34-76.83,93.34-76.83-51.93-293.22,26.56-356.48C1652.41,1043,1479.53,997.47,1442.44,968.08Z" transform="translate(278.82 -362.95)"/><path class="cls-30" d="M1440.3,969l26.94,124.83-63.75,41s26.19,93.34,18.22,103.59-96.76,145.7-94.48,149.11S1343.54,1054.36,1440.3,969Z" transform="translate(278.82 -362.95)"/><g class="cls-31"><path class="cls-4" d="M1239.92,1360.13c.14-.08.24-.49.29-1.16C1239.92,1359.77,1239.8,1360.19,1239.92,1360.13Z" transform="translate(278.82 -362.95)"/><path class="cls-4" d="M1292.61,1087.8c2-12.18,21.57-59.85,28.07-77.36-.31-1,1.08-.58.74-1.51-4,3.51-8.44,7.57-13.25,12.11l-64,77.82,31.21,52.25s-52.18,57.78-50.12,68c2,9.71,16,126.88,15,139.86,1.42-3.89,7.38-17.54,15.6-37.57C1271.05,1227.13,1286.26,1127.65,1292.61,1087.8Z" transform="translate(278.82 -362.95)"/></g><path class="cls-32" d="M1245.27,1145.42s23.34,7.43,27.7,29.22c.76,3.8,13.73,12.48,13.73,12.48s25.46,8.36,23.45,35.05c-.2,2.72,79.66,46.68,79.4,48.94-.82,7-10.31,22.37-19.64,21.63-26.13-2.07-70.57-39.56-70.57-39.56s-22.87-5.54-33-28.17-23.47-78.76-23.47-78.76" transform="translate(278.82 -362.95)"/><path class="cls-33" d="M1420,1247.49c-9-8.47-55.72-27.32-71.61-33.59,2.76-25.18,5.31-57.05,5.31-57.05s-8.26-70.62-17.37-72.13-48.56,12.14-50.08,24.28c-.78,6.2.41,32.28-2.47,57.29a315.74,315.74,0,0,1-9.58,47s-4.65,34.17,22.47,40.17l67.55,38.47Z" transform="translate(278.82 -362.95)"/><path class="cls-34" d="M1295.73,1242.18s-7.21-58.81,12.15-69.06,27.7-19.73,27.7-19.73l-4.94-53.87s25.81,31.11,22.39,54.25-1.52,64.89-1.52,64.89l38.7,20.49-3.41,54.64" transform="translate(278.82 -362.95)"/><path class="cls-35" d="M1590.3,1071.69c-2.21-18.18-23.22-28.85-29-40.1-15.77,11.53-67.92,60.53-74.75,133.38,9.92,52.29,36.94,115.62,37.56,117.81,1.52,5.31-159.93-71.71-159.93-71.71s0,23.33-6.83,40.41-21.06,39.27-21.06,39.27,232.81,114.59,273.2,101.31S1592.51,1089.88,1590.3,1071.69Z" transform="translate(278.82 -362.95)"/><circle class="cls-36" cx="662.34" cy="908.52" r="79.87" transform="translate(163.79 -266.71) rotate(-7.65)"/><path class="cls-37" d="M304.87,537.77a32.07,32.07,0,1,1-32.06-32.06A32.06,32.06,0,0,1,304.87,537.77Z" transform="translate(278.82 -362.95)"/><circle class="cls-38" cx="1049.21" cy="657.49" r="48.38" transform="translate(643.18 1326.1) rotate(-88.49)"/><path class="cls-4" d="M1295.74,915.67l45.66-2.84s-14.8,22.36-35.9,18" transform="translate(278.82 -362.95)"/><path class="cls-39" d="M867.66,1232.87A112.69,112.69,0,1,1,755,1120.18,112.7,112.7,0,0,1,867.66,1232.87Z" transform="translate(278.82 -362.95)"/><path class="cls-5" d="M804.42,1331.92a34.7,34.7,0,0,0-7.53-5.23c-18.4-8.19-37.47-12-57.81-17.09-5.08-1.27-11.44-6.35-8.89-14,5.08-10.17,17.79-8.9,28-12.71-11.44-21.61-53.39-21.61-49.57-36.87,8.89-36.86,63.56,7.63,96.94,7.89a66.76,66.76,0,0,0,24.71-2.14q4-.76,8-1.71a235.7,235.7,0,0,0,28.85-8.89q.31-4.23.32-8.53a112,112,0,0,0-17.53-60.32c-10.46.21-21.48,1.57-31.56,5.06-33.05,11.44-85.17,17.79-83.9-5.08s-2.54-28-24.15-24.16a41.1,41.1,0,0,1-25.18-3.7A113.82,113.82,0,0,0,671.66,1157c20.21,7.81,38.54,19.92,49.42,39.32,3.46,6,4.87,10.85,2.89,13.79-1,1.47-2.82,2.45-5.68,2.84a40,40,0,0,1-11.84-.76c-13.13-.47-24.57-9.37-37.28-6.83-3.82,0,1.27,5.09,1.54,7.77a99,99,0,0,0,7.22,12c7.71,11.33,14.86,19.67.56,15.86-7.8-2.08-21.76-5-36.06-7.29a112.79,112.79,0,0,0,2,20.18c23.43,5,50.47,16.14,58.87,22.7,14.64,11.44,1.9,11.44-7,13.27s-2.54,18.51,12.71,35c4.79,5.19,5.9,9.38,5.16,12.68a112.75,112.75,0,0,0,91.42-4.41C805.22,1332.72,804.83,1332.31,804.42,1331.92Zm-49.51-119.73s86.3-32.25,92.65-6.83-29.09,26.63-46.33,27.3S742.34,1229.18,754.91,1212.19Z" transform="translate(278.82 -362.95)"/><path class="cls-4" d="M860.31,1194.92l1.39.68c.91.45,2.26,1.12,4,2,3.5,1.82,8.63,4.5,14.89,8.37,3.13,1.93,6.55,4.16,10.14,6.78a104.92,104.92,0,0,1,11.07,9.17A53.27,53.27,0,0,1,912,1234.79a25.64,25.64,0,0,1,2.86,8.5,19.94,19.94,0,0,1,0,4.7,18.81,18.81,0,0,1-1.23,4.65,22.21,22.21,0,0,1-5.84,7.9,39,39,0,0,1-4,3,48.62,48.62,0,0,1-4.44,2.55,84.88,84.88,0,0,1-20.07,6.7c-14.22,3.05-29.56,4.07-45.35,4a395.5,395.5,0,0,1-48.54-3.61c-16.43-2.2-33-5.29-49.39-9.17a482.92,482.92,0,0,1-48.21-14.15A351.83,351.83,0,0,1,643,1230.73,205.45,205.45,0,0,1,623,1218.91a116.75,116.75,0,0,1-17.38-14.05,59.56,59.56,0,0,1-6.94-8.26,33,33,0,0,1-4.61-9.47,18.92,18.92,0,0,1-.18-10.23c.12-.39.21-.78.35-1.18l.47-1.19a8.52,8.52,0,0,1,.54-1.14c.2-.37.37-.75.59-1.1a24.3,24.3,0,0,1,1.4-2c.26-.32.5-.65.76-1l.83-.89a32.46,32.46,0,0,1,7.42-5.72,53,53,0,0,1,8.07-3.78,97,97,0,0,1,15.77-4.39,184,184,0,0,1,26.37-3c7.35-.35,13.13-.33,17.07-.27,2,0,3.48.07,4.5.09l1.54,0H678c-1,0-2.53,0-4.5,0-3.94,0-9.72.06-17.05.52a182.42,182.42,0,0,0-26.25,3.39,96.78,96.78,0,0,0-15.57,4.57,55.66,55.66,0,0,0-7.87,3.8,31.52,31.52,0,0,0-7.15,5.58l-.77.86c-.26.29-.48.61-.72.91a21,21,0,0,0-1.3,1.93c-.22.33-.36.69-.55,1a8.46,8.46,0,0,0-.49,1.06l-.42,1.07c-.13.38-.23.79-.34,1.18a17.75,17.75,0,0,0,.26,9.55,31.22,31.22,0,0,0,4.5,9,58,58,0,0,0,6.85,8,114.78,114.78,0,0,0,17.25,13.72,215.51,215.51,0,0,0,20,11.64,348.75,348.75,0,0,0,44.58,18.91,484.52,484.52,0,0,0,48.05,14c16.32,3.9,32.82,7,49.18,9.26a392.65,392.65,0,0,0,48.3,3.73c15.7.12,31-.73,45-3.64a83.67,83.67,0,0,0,19.8-6.42,48.11,48.11,0,0,0,4.34-2.45,35.61,35.61,0,0,0,3.9-2.91,21,21,0,0,0,5.6-7.44,17.47,17.47,0,0,0,1.2-4.35,18.75,18.75,0,0,0,0-4.43,25.42,25.42,0,0,0-2.66-8.19,52,52,0,0,0-9.83-12.77,101.54,101.54,0,0,0-10.87-9.28c-3.54-2.66-6.91-4.93-10-6.91-6.19-4-11.28-6.7-14.75-8.57-1.73-.93-3.08-1.62-4-2.08Z" transform="translate(278.82 -362.95)"/><path class="cls-4" d="M846.54,1167l10.09,3.5c6.56,2.33,16.16,5.84,28.19,10.8a451.71,451.71,0,0,1,42.43,20c8,4.31,16.31,9.19,24.76,14.86,2.14,1.39,4.2,2.93,6.34,4.42s4.23,3.12,6.32,4.79A148.81,148.81,0,0,1,977,1236.16a87,87,0,0,1,11.06,13.09c.83,1.2,1.56,2.49,2.35,3.74s1.39,2.62,2.06,4a39.64,39.64,0,0,1,2.85,8.6,29.13,29.13,0,0,1,.59,4.58,18.12,18.12,0,0,1,0,2.33,14,14,0,0,1-.17,2.33l-.37,2.32c-.18.81-.38,1.51-.59,2.27a28.81,28.81,0,0,1-1.82,4.41c-2.93,5.67-7.71,10.25-13,13.86a80.42,80.42,0,0,1-17.48,8.72,148,148,0,0,1-19.19,5.56,265.72,265.72,0,0,1-40.77,5.41c-27.89,1.67-56.8.4-85.92-2.74a748.43,748.43,0,0,1-87.48-15,727.9,727.9,0,0,1-85.1-25.19c-13.76-5-27.23-10.52-40.29-16.5a394.55,394.55,0,0,1-37.71-19.6c-6-3.58-11.84-7.32-17.45-11.29a180.6,180.6,0,0,1-16-12.64,108.27,108.27,0,0,1-13.73-14.55,52.92,52.92,0,0,1-9.24-17.26,31,31,0,0,1-1.25-9.61,28.38,28.38,0,0,1,.59-4.79c.21-.86.44-1.52.66-2.29l.33-1.12c.14-.37.32-.74.48-1.11l1-2.2,1.22-2,.6-1,.72-.93,1.43-1.86c.51-.58,1.06-1.13,1.59-1.69a19.4,19.4,0,0,1,1.64-1.63,44.2,44.2,0,0,1,3.53-2.93,72.87,72.87,0,0,1,15.58-8.65,125.16,125.16,0,0,1,16.25-5.39,214.17,214.17,0,0,1,31.54-5.61c10.11-1.09,19.75-1.61,28.81-1.85,18.13-.42,33.92.32,46.9,1.21s23.13,2.05,30,2.85l10.59,1.34-10.6-1.25c-6.93-.75-17.09-1.79-30.07-2.6s-28.76-1.4-46.85-.82c-9,.31-18.65.91-28.72,2.08-5,.57-10.19,1.33-15.43,2.22s-10.57,2-15.93,3.52a121.94,121.94,0,0,0-16.07,5.41,70.88,70.88,0,0,0-15.27,8.57,42.11,42.11,0,0,0-3.42,2.86,18.12,18.12,0,0,0-1.58,1.58c-.51.55-1,1.08-1.53,1.64l-1.36,1.79-.68.89-.58,1-1.16,1.94-.89,2.05a26.5,26.5,0,0,0-.7,18,51.48,51.48,0,0,0,9.07,16.72,106.76,106.76,0,0,0,13.59,14.26,220.59,220.59,0,0,0,33.26,23.66,390.2,390.2,0,0,0,37.58,19.46c13,5.94,26.46,11.38,40.18,16.39a728,728,0,0,0,84.91,25,746.62,746.62,0,0,0,87.24,15.07c29,3.17,57.84,4.48,85.6,2.86a270.62,270.62,0,0,0,40.52-5.27,147.85,147.85,0,0,0,19-5.41,79.87,79.87,0,0,0,17.21-8.48c5.21-3.5,9.82-7.9,12.64-13.29a28.61,28.61,0,0,0,1.74-4.14c.2-.72.42-1.5.58-2.19l.35-2.21a12.59,12.59,0,0,0,.18-2.21,18.31,18.31,0,0,0,0-2.22,26.88,26.88,0,0,0-.55-4.39,38.11,38.11,0,0,0-2.71-8.33c-.66-1.3-1.3-2.6-2-3.87s-1.47-2.48-2.28-3.67a86.09,86.09,0,0,0-10.86-13,173.29,173.29,0,0,0-24.73-20.06c-8.37-5.72-16.64-10.65-24.56-15a448.7,448.7,0,0,0-42.22-20.31c-12-5-21.55-8.64-28.09-11Z" transform="translate(278.82 -362.95)"/><path class="cls-40" d="M611.33,1177.68a17.08,17.08,0,1,1-17.08-17.08A17.08,17.08,0,0,1,611.33,1177.68Z" transform="translate(278.82 -362.95)"/><path class="cls-41" d="M990.67,1301.75A19.73,19.73,0,1,1,970.94,1282,19.73,19.73,0,0,1,990.67,1301.75Z" transform="translate(278.82 -362.95)"/><path class="cls-42" d="M1794,1011a10.46,10.46,0,0,1-10.47,10.46c-5.77,0-195.79-211.52-195.79-211.52S1794,1005.21,1794,1011Z" transform="translate(278.82 -362.95)"/><path class="cls-43" d="M1879.09,1205.66a5.91,5.91,0,0,1-5.92,5.91c-3.26,0-110.58-119.47-110.58-119.47S1879.09,1202.4,1879.09,1205.66Z" transform="translate(278.82 -362.95)"/><path class="cls-5" d="M1333.68,816.84a7.58,7.58,0,0,1-7.59,7.58h-126a7.58,7.58,0,0,1-7.59-7.58h0a7.59,7.59,0,0,1,7.59-7.59h126a7.59,7.59,0,0,1,7.59,7.59Z" transform="translate(278.82 -362.95)"/><path class="cls-44" d="M400.72,905.52c-8.81,6.3-8.56-.74-12.27,4a47.74,47.74,0,0,0,2.72,5.64c3.55,5.58,7.68,10.83,10.84,16.61,4.44,8.14,2.5,12.47-5,17.63-5.06,3.48-8.93,8.64-13.74,12.56-8.67,7.06-17.67,13.72-26.46,20.64-2.26,1.78-4.78,3.59-6.24,6-3.52,5.71-8.54,8.14-15,8.73-8.47.79-16.93,1.74-25.35,2.91-2.63.36-5.07,2-7.7,2.47a60.33,60.33,0,0,1-8.1.51l2.81-7.13c-2.56-3.43-5.7-1.56-8.32.81-3.13,2.85-2.67,8.43.91,11.07,4.41,3.24,9.15,3.71,14.75,2.43a257.68,257.68,0,0,1,29.41-4.75c5.95-.65,9.91,2.5,12.51,8.28a16.73,16.73,0,0,0,7.69,7.38c12.5,6,20.76,15,23,29a7.86,7.86,0,0,0,3.67,5.09c6.48,3.23,13.13,6.17,19.9,8.74,4,1.51,8.86-2.18,10.81-7.2.87-2.24,2.28-4.27,3.12-6.51a17.53,17.53,0,0,0,.53-4.33c-1.55-.06-3.81-.82-4.53-.08-4.37,4.54-9.08,1.79-13.23.4-2.11-.71-4.33-3.88-4.77-6.26-1.43-7.74-1.76-15.69-3.12-23.45-.94-5.37.23-8.82,5.57-10.79,11.75-4.32,20.38-12.71,28.06-22.21,4.9-6.07,6.55-6.22,12.4-.74,6.69,6.25,13.11,12.81,20.16,18.62s9.61,4.94,14.75-4.46c-12.07,1.61-15.65-7.37-19.83-16.06,3.61,1.71,7.15,3.57,10.83,5.08,4,1.63,8.17,4.17,12.12,3.94,2.73-.15,5.23-4.33,7.84-6.71-1.48-.8-3.55-2.66-4.33-2.23-5.28,3-9,.52-13-2.65-8.07-6.43-17.77-11.18-21.82-21.64-.89-2.31-1.42-4.79-2.54-7a128.87,128.87,0,0,0-7.47-13.34c-2.87-4.28-6.66-8-9.41-12.31a8.68,8.68,0,0,1-.77-7c1.93-4.69,2.95-10-1.39-12.41-3.49-2-8.84-.75-13.36-.68C405.49,904.22,403.56,904.93,400.72,905.52Z" transform="translate(278.82 -362.95)"/></g></g></svg>